M48
; DRILL file {KiCad 8.0.3} date 2024-06-20T18:19:19+0100
; FORMAT={-:-/ absolute / inch / decimal}
; #@! TF.CreationDate,2024-06-20T18:19:19+01:00
; #@! TF.GenerationSoftware,Kicad,Pcbnew,8.0.3
; #@! TF.FileFunction,Plated,1,2,PTH
FMAT,2
INCH
; #@! TA.AperFunction,Plated,PTH,ViaDrill
T1C0.0118
; #@! TA.AperFunction,Plated,PTH,ComponentDrill
T2C0.0394
%
G90
G05
T1
X3.06Y-3.4
X3.12Y-3.5631
X3.2Y-3.3231
X3.2Y-3.4031
X3.3Y-3.8031
X3.74Y-3.5631
X3.82Y-3.32
X3.82Y-3.4
X3.92Y-3.8031
X4.38Y-3.56
X4.46Y-3.3
X4.46Y-3.4
X4.56Y-3.8
X5.0Y-3.5631
X5.08Y-3.3
X5.08Y-3.4
X5.18Y-3.8031
X5.62Y-3.5631
X5.7Y-3.3
X5.7Y-3.4
X5.8Y-3.8031
X6.24Y-3.56
X6.32Y-3.3
X6.32Y-3.4
X6.42Y-3.8
X6.86Y-3.56
X6.94Y-3.3
X6.94Y-3.4
X7.04Y-3.8
X7.48Y-3.5631
X7.56Y-3.32
X7.56Y-3.4
X7.66Y-3.8031
X8.12Y-3.56
X8.2Y-3.32
X8.2Y-3.4
X8.3Y-3.8
X8.76Y-3.56
X8.84Y-3.32
X8.84Y-3.4
X8.94Y-3.8
T2
X2.82Y-3.0431
X2.82Y-3.1431
X2.82Y-3.2431
X9.2Y-3.0431
X9.2Y-3.1431
X9.2Y-3.2431
M30
