M48
; DRILL file {KiCad 8.0.3} date 2024-06-20T18:25:27+0100
; FORMAT={-:-/ absolute / metric / decimal}
; #@! TF.CreationDate,2024-06-20T18:25:27+01:00
; #@! TF.GenerationSoftware,Kicad,Pcbnew,8.0.3
; #@! TF.FileFunction,Plated,1,2,PTH
FMAT,2
METRIC
; #@! TA.AperFunction,Plated,PTH,ViaDrill
T1C0.300
; #@! TA.AperFunction,Plated,PTH,ComponentDrill
T2C1.000
%
G90
G05
T1
X77.724Y-86.36
X79.248Y-90.502
X81.28Y-84.406
X81.28Y-86.438
X83.82Y-96.599
X94.996Y-90.502
X97.028Y-84.328
X97.028Y-86.36
X99.568Y-96.599
X111.252Y-90.424
X113.284Y-83.82
X113.284Y-86.36
X115.824Y-96.52
X127.0Y-90.502
X129.032Y-83.82
X129.032Y-86.36
X131.572Y-96.599
X142.748Y-90.502
X144.78Y-83.82
X144.78Y-86.36
X147.32Y-96.599
X158.496Y-90.424
X160.528Y-83.82
X160.528Y-86.36
X163.068Y-96.52
X174.244Y-90.424
X176.276Y-83.82
X176.276Y-86.36
X178.816Y-96.52
X189.992Y-90.502
X192.024Y-84.328
X192.024Y-86.36
X194.564Y-96.599
X206.248Y-90.424
X208.28Y-84.328
X208.28Y-86.36
X210.82Y-96.52
X222.504Y-90.424
X224.536Y-84.328
X224.536Y-86.36
X227.076Y-96.52
T2
X71.628Y-77.294
X71.628Y-79.834
X71.628Y-82.374
X233.68Y-77.294
X233.68Y-79.834
X233.68Y-82.374
M30
