G04 #@! TF.GenerationSoftware,KiCad,Pcbnew,8.0.3*
G04 #@! TF.CreationDate,2024-06-20T18:30:59+01:00*
G04 #@! TF.ProjectId,BClock,42436c6f-636b-42e6-9b69-6361645f7063,rev?*
G04 #@! TF.SameCoordinates,Original*
G04 #@! TF.FileFunction,Paste,Top*
G04 #@! TF.FilePolarity,Positive*
%FSLAX46Y46*%
G04 Gerber Fmt 4.6, Leading zero omitted, Abs format (unit mm)*
G04 Created by KiCad (PCBNEW 8.0.3) date 2024-06-20 18:30:59*
%MOMM*%
%LPD*%
G01*
G04 APERTURE LIST*
G04 Aperture macros list*
%AMRoundRect*
0 Rectangle with rounded corners*
0 $1 Rounding radius*
0 $2 $3 $4 $5 $6 $7 $8 $9 X,Y pos of 4 corners*
0 Add a 4 corners polygon primitive as box body*
4,1,4,$2,$3,$4,$5,$6,$7,$8,$9,$2,$3,0*
0 Add four circle primitives for the rounded corners*
1,1,$1+$1,$2,$3*
1,1,$1+$1,$4,$5*
1,1,$1+$1,$6,$7*
1,1,$1+$1,$8,$9*
0 Add four rect primitives between the rounded corners*
20,1,$1+$1,$2,$3,$4,$5,0*
20,1,$1+$1,$4,$5,$6,$7,0*
20,1,$1+$1,$6,$7,$8,$9,0*
20,1,$1+$1,$8,$9,$2,$3,0*%
G04 Aperture macros list end*
%ADD10RoundRect,0.150000X0.150000X-0.675000X0.150000X0.675000X-0.150000X0.675000X-0.150000X-0.675000X0*%
%ADD11RoundRect,0.250000X0.450000X-0.262500X0.450000X0.262500X-0.450000X0.262500X-0.450000X-0.262500X0*%
%ADD12RoundRect,0.250000X-0.450000X0.262500X-0.450000X-0.262500X0.450000X-0.262500X0.450000X0.262500X0*%
%ADD13RoundRect,0.243750X-0.456250X0.243750X-0.456250X-0.243750X0.456250X-0.243750X0.456250X0.243750X0*%
%ADD14RoundRect,0.250000X-0.475000X0.250000X-0.475000X-0.250000X0.475000X-0.250000X0.475000X0.250000X0*%
G04 APERTURE END LIST*
D10*
X78867000Y-93036000D03*
X80137000Y-93036000D03*
X81407000Y-93036000D03*
X82677000Y-93036000D03*
X82677000Y-98286000D03*
X81407000Y-98286000D03*
X80137000Y-98286000D03*
X78867000Y-98286000D03*
D11*
X84328000Y-87636500D03*
X84328000Y-89461500D03*
D12*
X81280000Y-89461500D03*
X81280000Y-87636500D03*
D13*
X86868000Y-104218500D03*
X86868000Y-102343500D03*
X81280000Y-104218500D03*
X81280000Y-102343500D03*
X75692000Y-104218500D03*
X75692000Y-102343500D03*
D14*
X77724000Y-89499000D03*
X77724000Y-87599000D03*
D10*
X94615000Y-93036000D03*
X95885000Y-93036000D03*
X97155000Y-93036000D03*
X98425000Y-93036000D03*
X98425000Y-98286000D03*
X97155000Y-98286000D03*
X95885000Y-98286000D03*
X94615000Y-98286000D03*
D14*
X93472000Y-89499000D03*
X93472000Y-87599000D03*
D12*
X192024000Y-89461500D03*
X192024000Y-87636500D03*
D11*
X195072000Y-87636500D03*
X195072000Y-89461500D03*
D13*
X134620000Y-104218500D03*
X134620000Y-102343500D03*
D12*
X224536000Y-89383000D03*
X224536000Y-87558000D03*
D10*
X126619000Y-93036000D03*
X127889000Y-93036000D03*
X129159000Y-93036000D03*
X130429000Y-93036000D03*
X130429000Y-98286000D03*
X129159000Y-98286000D03*
X127889000Y-98286000D03*
X126619000Y-98286000D03*
D12*
X129032000Y-89461500D03*
X129032000Y-87636500D03*
D10*
X205867000Y-92957500D03*
X207137000Y-92957500D03*
X208407000Y-92957500D03*
X209677000Y-92957500D03*
X209677000Y-98207500D03*
X208407000Y-98207500D03*
X207137000Y-98207500D03*
X205867000Y-98207500D03*
D13*
X160528000Y-104140000D03*
X160528000Y-102265000D03*
D11*
X116332000Y-87558000D03*
X116332000Y-89383000D03*
D13*
X97028000Y-104218500D03*
X97028000Y-102343500D03*
X139192000Y-104218500D03*
X139192000Y-102343500D03*
D14*
X141224000Y-89499000D03*
X141224000Y-87599000D03*
D13*
X166116000Y-104140000D03*
X166116000Y-102265000D03*
X154940000Y-104140000D03*
X154940000Y-102265000D03*
D11*
X100076000Y-87636500D03*
X100076000Y-89461500D03*
D13*
X197612000Y-104218500D03*
X197612000Y-102343500D03*
D14*
X188468000Y-89499000D03*
X188468000Y-87599000D03*
D13*
X113284000Y-104140000D03*
X113284000Y-102265000D03*
X144780000Y-104218500D03*
X144780000Y-102343500D03*
D12*
X97028000Y-87636500D03*
X97028000Y-89461500D03*
D13*
X150368000Y-104218500D03*
X150368000Y-102343500D03*
D14*
X156972000Y-89420500D03*
X156972000Y-87520500D03*
D13*
X186436000Y-104218500D03*
X186436000Y-102343500D03*
X176276000Y-104140000D03*
X176276000Y-102265000D03*
D14*
X172720000Y-89420500D03*
X172720000Y-87520500D03*
D13*
X192024000Y-104218500D03*
X192024000Y-102343500D03*
X181864000Y-104140000D03*
X181864000Y-102265000D03*
D11*
X163576000Y-87558000D03*
X163576000Y-89383000D03*
D12*
X160528000Y-89383000D03*
X160528000Y-87558000D03*
D10*
X189611000Y-93036000D03*
X190881000Y-93036000D03*
X192151000Y-93036000D03*
X193421000Y-93036000D03*
X193421000Y-98286000D03*
X192151000Y-98286000D03*
X190881000Y-98286000D03*
X189611000Y-98286000D03*
D13*
X170688000Y-104140000D03*
X170688000Y-102265000D03*
D12*
X176276000Y-89383000D03*
X176276000Y-87558000D03*
D11*
X179324000Y-87558000D03*
X179324000Y-89383000D03*
D10*
X158115000Y-92957500D03*
X159385000Y-92957500D03*
X160655000Y-92957500D03*
X161925000Y-92957500D03*
X161925000Y-98207500D03*
X160655000Y-98207500D03*
X159385000Y-98207500D03*
X158115000Y-98207500D03*
D13*
X213868000Y-104140000D03*
X213868000Y-102265000D03*
D11*
X132080000Y-87636500D03*
X132080000Y-89461500D03*
D13*
X91440000Y-104218500D03*
X91440000Y-102343500D03*
D14*
X204724000Y-89420500D03*
X204724000Y-87520500D03*
D12*
X144780000Y-89461500D03*
X144780000Y-87636500D03*
D13*
X129032000Y-104218500D03*
X129032000Y-102343500D03*
D10*
X142367000Y-93036000D03*
X143637000Y-93036000D03*
X144907000Y-93036000D03*
X146177000Y-93036000D03*
X146177000Y-98286000D03*
X144907000Y-98286000D03*
X143637000Y-98286000D03*
X142367000Y-98286000D03*
D14*
X125476000Y-89499000D03*
X125476000Y-87599000D03*
D10*
X222123000Y-92957500D03*
X223393000Y-92957500D03*
X224663000Y-92957500D03*
X225933000Y-92957500D03*
X225933000Y-98207500D03*
X224663000Y-98207500D03*
X223393000Y-98207500D03*
X222123000Y-98207500D03*
D14*
X109728000Y-89420500D03*
X109728000Y-87520500D03*
D13*
X107696000Y-104140000D03*
X107696000Y-102265000D03*
D12*
X113284000Y-89383000D03*
X113284000Y-87558000D03*
D13*
X118872000Y-104140000D03*
X118872000Y-102265000D03*
D10*
X110871000Y-92957500D03*
X112141000Y-92957500D03*
X113411000Y-92957500D03*
X114681000Y-92957500D03*
X114681000Y-98207500D03*
X113411000Y-98207500D03*
X112141000Y-98207500D03*
X110871000Y-98207500D03*
D13*
X218948000Y-104140000D03*
X218948000Y-102265000D03*
X102616000Y-104218500D03*
X102616000Y-102343500D03*
D12*
X208280000Y-89383000D03*
X208280000Y-87558000D03*
D13*
X123444000Y-104218500D03*
X123444000Y-102343500D03*
X224536000Y-104140000D03*
X224536000Y-102265000D03*
D11*
X227584000Y-87558000D03*
X227584000Y-89383000D03*
D13*
X202692000Y-104140000D03*
X202692000Y-102265000D03*
D14*
X220980000Y-89420500D03*
X220980000Y-87520500D03*
D13*
X230124000Y-104140000D03*
X230124000Y-102265000D03*
D11*
X147828000Y-87636500D03*
X147828000Y-89461500D03*
D13*
X208280000Y-104140000D03*
X208280000Y-102265000D03*
D10*
X173863000Y-92957500D03*
X175133000Y-92957500D03*
X176403000Y-92957500D03*
X177673000Y-92957500D03*
X177673000Y-98207500D03*
X176403000Y-98207500D03*
X175133000Y-98207500D03*
X173863000Y-98207500D03*
D11*
X211328000Y-87558000D03*
X211328000Y-89383000D03*
M02*
