G04 #@! TF.GenerationSoftware,KiCad,Pcbnew,8.0.3*
G04 #@! TF.CreationDate,2024-06-20T18:30:59+01:00*
G04 #@! TF.ProjectId,BClock,42436c6f-636b-42e6-9b69-6361645f7063,rev?*
G04 #@! TF.SameCoordinates,Original*
G04 #@! TF.FileFunction,Legend,Top*
G04 #@! TF.FilePolarity,Positive*
%FSLAX46Y46*%
G04 Gerber Fmt 4.6, Leading zero omitted, Abs format (unit mm)*
G04 Created by KiCad (PCBNEW 8.0.3) date 2024-06-20 18:30:59*
%MOMM*%
%LPD*%
G01*
G04 APERTURE LIST*
G04 Aperture macros list*
%AMRoundRect*
0 Rectangle with rounded corners*
0 $1 Rounding radius*
0 $2 $3 $4 $5 $6 $7 $8 $9 X,Y pos of 4 corners*
0 Add a 4 corners polygon primitive as box body*
4,1,4,$2,$3,$4,$5,$6,$7,$8,$9,$2,$3,0*
0 Add four circle primitives for the rounded corners*
1,1,$1+$1,$2,$3*
1,1,$1+$1,$4,$5*
1,1,$1+$1,$6,$7*
1,1,$1+$1,$8,$9*
0 Add four rect primitives between the rounded corners*
20,1,$1+$1,$2,$3,$4,$5,0*
20,1,$1+$1,$4,$5,$6,$7,0*
20,1,$1+$1,$6,$7,$8,$9,0*
20,1,$1+$1,$8,$9,$2,$3,0*%
G04 Aperture macros list end*
%ADD10C,0.150000*%
%ADD11C,0.120000*%
%ADD12O,1.700000X1.700000*%
%ADD13R,1.700000X1.700000*%
%ADD14RoundRect,0.150000X0.150000X-0.675000X0.150000X0.675000X-0.150000X0.675000X-0.150000X-0.675000X0*%
%ADD15RoundRect,0.250000X0.450000X-0.262500X0.450000X0.262500X-0.450000X0.262500X-0.450000X-0.262500X0*%
%ADD16RoundRect,0.250000X-0.450000X0.262500X-0.450000X-0.262500X0.450000X-0.262500X0.450000X0.262500X0*%
%ADD17RoundRect,0.243750X-0.456250X0.243750X-0.456250X-0.243750X0.456250X-0.243750X0.456250X0.243750X0*%
%ADD18RoundRect,0.250000X-0.475000X0.250000X-0.475000X-0.250000X0.475000X-0.250000X0.475000X0.250000X0*%
G04 APERTURE END LIST*
D10*
X71294666Y-74419319D02*
X71294666Y-75133604D01*
X71294666Y-75133604D02*
X71247047Y-75276461D01*
X71247047Y-75276461D02*
X71151809Y-75371700D01*
X71151809Y-75371700D02*
X71008952Y-75419319D01*
X71008952Y-75419319D02*
X70913714Y-75419319D01*
X72294666Y-75419319D02*
X71723238Y-75419319D01*
X72008952Y-75419319D02*
X72008952Y-74419319D01*
X72008952Y-74419319D02*
X71913714Y-74562176D01*
X71913714Y-74562176D02*
X71818476Y-74657414D01*
X71818476Y-74657414D02*
X71723238Y-74705033D01*
X76826819Y-96422904D02*
X77636342Y-96422904D01*
X77636342Y-96422904D02*
X77731580Y-96375285D01*
X77731580Y-96375285D02*
X77779200Y-96327666D01*
X77779200Y-96327666D02*
X77826819Y-96232428D01*
X77826819Y-96232428D02*
X77826819Y-96041952D01*
X77826819Y-96041952D02*
X77779200Y-95946714D01*
X77779200Y-95946714D02*
X77731580Y-95899095D01*
X77731580Y-95899095D02*
X77636342Y-95851476D01*
X77636342Y-95851476D02*
X76826819Y-95851476D01*
X77826819Y-94851476D02*
X77826819Y-95422904D01*
X77826819Y-95137190D02*
X76826819Y-95137190D01*
X76826819Y-95137190D02*
X76969676Y-95232428D01*
X76969676Y-95232428D02*
X77064914Y-95327666D01*
X77064914Y-95327666D02*
X77112533Y-95422904D01*
X88972819Y-104019094D02*
X87972819Y-104019094D01*
X87972819Y-104019094D02*
X87972819Y-103780999D01*
X87972819Y-103780999D02*
X88020438Y-103638142D01*
X88020438Y-103638142D02*
X88115676Y-103542904D01*
X88115676Y-103542904D02*
X88210914Y-103495285D01*
X88210914Y-103495285D02*
X88401390Y-103447666D01*
X88401390Y-103447666D02*
X88544247Y-103447666D01*
X88544247Y-103447666D02*
X88734723Y-103495285D01*
X88734723Y-103495285D02*
X88829961Y-103542904D01*
X88829961Y-103542904D02*
X88925200Y-103638142D01*
X88925200Y-103638142D02*
X88972819Y-103780999D01*
X88972819Y-103780999D02*
X88972819Y-104019094D01*
X87972819Y-103114332D02*
X87972819Y-102495285D01*
X87972819Y-102495285D02*
X88353771Y-102828618D01*
X88353771Y-102828618D02*
X88353771Y-102685761D01*
X88353771Y-102685761D02*
X88401390Y-102590523D01*
X88401390Y-102590523D02*
X88449009Y-102542904D01*
X88449009Y-102542904D02*
X88544247Y-102495285D01*
X88544247Y-102495285D02*
X88782342Y-102495285D01*
X88782342Y-102495285D02*
X88877580Y-102542904D01*
X88877580Y-102542904D02*
X88925200Y-102590523D01*
X88925200Y-102590523D02*
X88972819Y-102685761D01*
X88972819Y-102685761D02*
X88972819Y-102971475D01*
X88972819Y-102971475D02*
X88925200Y-103066713D01*
X88925200Y-103066713D02*
X88877580Y-103114332D01*
X83384819Y-104019094D02*
X82384819Y-104019094D01*
X82384819Y-104019094D02*
X82384819Y-103780999D01*
X82384819Y-103780999D02*
X82432438Y-103638142D01*
X82432438Y-103638142D02*
X82527676Y-103542904D01*
X82527676Y-103542904D02*
X82622914Y-103495285D01*
X82622914Y-103495285D02*
X82813390Y-103447666D01*
X82813390Y-103447666D02*
X82956247Y-103447666D01*
X82956247Y-103447666D02*
X83146723Y-103495285D01*
X83146723Y-103495285D02*
X83241961Y-103542904D01*
X83241961Y-103542904D02*
X83337200Y-103638142D01*
X83337200Y-103638142D02*
X83384819Y-103780999D01*
X83384819Y-103780999D02*
X83384819Y-104019094D01*
X82480057Y-103066713D02*
X82432438Y-103019094D01*
X82432438Y-103019094D02*
X82384819Y-102923856D01*
X82384819Y-102923856D02*
X82384819Y-102685761D01*
X82384819Y-102685761D02*
X82432438Y-102590523D01*
X82432438Y-102590523D02*
X82480057Y-102542904D01*
X82480057Y-102542904D02*
X82575295Y-102495285D01*
X82575295Y-102495285D02*
X82670533Y-102495285D01*
X82670533Y-102495285D02*
X82813390Y-102542904D01*
X82813390Y-102542904D02*
X83384819Y-103114332D01*
X83384819Y-103114332D02*
X83384819Y-102495285D01*
X77796819Y-104019094D02*
X76796819Y-104019094D01*
X76796819Y-104019094D02*
X76796819Y-103780999D01*
X76796819Y-103780999D02*
X76844438Y-103638142D01*
X76844438Y-103638142D02*
X76939676Y-103542904D01*
X76939676Y-103542904D02*
X77034914Y-103495285D01*
X77034914Y-103495285D02*
X77225390Y-103447666D01*
X77225390Y-103447666D02*
X77368247Y-103447666D01*
X77368247Y-103447666D02*
X77558723Y-103495285D01*
X77558723Y-103495285D02*
X77653961Y-103542904D01*
X77653961Y-103542904D02*
X77749200Y-103638142D01*
X77749200Y-103638142D02*
X77796819Y-103780999D01*
X77796819Y-103780999D02*
X77796819Y-104019094D01*
X77796819Y-102495285D02*
X77796819Y-103066713D01*
X77796819Y-102780999D02*
X76796819Y-102780999D01*
X76796819Y-102780999D02*
X76939676Y-102876237D01*
X76939676Y-102876237D02*
X77034914Y-102971475D01*
X77034914Y-102971475D02*
X77082533Y-103066713D01*
X79763580Y-88715666D02*
X79811200Y-88763285D01*
X79811200Y-88763285D02*
X79858819Y-88906142D01*
X79858819Y-88906142D02*
X79858819Y-89001380D01*
X79858819Y-89001380D02*
X79811200Y-89144237D01*
X79811200Y-89144237D02*
X79715961Y-89239475D01*
X79715961Y-89239475D02*
X79620723Y-89287094D01*
X79620723Y-89287094D02*
X79430247Y-89334713D01*
X79430247Y-89334713D02*
X79287390Y-89334713D01*
X79287390Y-89334713D02*
X79096914Y-89287094D01*
X79096914Y-89287094D02*
X79001676Y-89239475D01*
X79001676Y-89239475D02*
X78906438Y-89144237D01*
X78906438Y-89144237D02*
X78858819Y-89001380D01*
X78858819Y-89001380D02*
X78858819Y-88906142D01*
X78858819Y-88906142D02*
X78906438Y-88763285D01*
X78906438Y-88763285D02*
X78954057Y-88715666D01*
X79858819Y-87763285D02*
X79858819Y-88334713D01*
X79858819Y-88048999D02*
X78858819Y-88048999D01*
X78858819Y-88048999D02*
X79001676Y-88144237D01*
X79001676Y-88144237D02*
X79096914Y-88239475D01*
X79096914Y-88239475D02*
X79144533Y-88334713D01*
X92574819Y-96422904D02*
X93384342Y-96422904D01*
X93384342Y-96422904D02*
X93479580Y-96375285D01*
X93479580Y-96375285D02*
X93527200Y-96327666D01*
X93527200Y-96327666D02*
X93574819Y-96232428D01*
X93574819Y-96232428D02*
X93574819Y-96041952D01*
X93574819Y-96041952D02*
X93527200Y-95946714D01*
X93527200Y-95946714D02*
X93479580Y-95899095D01*
X93479580Y-95899095D02*
X93384342Y-95851476D01*
X93384342Y-95851476D02*
X92574819Y-95851476D01*
X92670057Y-95422904D02*
X92622438Y-95375285D01*
X92622438Y-95375285D02*
X92574819Y-95280047D01*
X92574819Y-95280047D02*
X92574819Y-95041952D01*
X92574819Y-95041952D02*
X92622438Y-94946714D01*
X92622438Y-94946714D02*
X92670057Y-94899095D01*
X92670057Y-94899095D02*
X92765295Y-94851476D01*
X92765295Y-94851476D02*
X92860533Y-94851476D01*
X92860533Y-94851476D02*
X93003390Y-94899095D01*
X93003390Y-94899095D02*
X93574819Y-95470523D01*
X93574819Y-95470523D02*
X93574819Y-94851476D01*
X233346666Y-74419319D02*
X233346666Y-75133604D01*
X233346666Y-75133604D02*
X233299047Y-75276461D01*
X233299047Y-75276461D02*
X233203809Y-75371700D01*
X233203809Y-75371700D02*
X233060952Y-75419319D01*
X233060952Y-75419319D02*
X232965714Y-75419319D01*
X233775238Y-74514557D02*
X233822857Y-74466938D01*
X233822857Y-74466938D02*
X233918095Y-74419319D01*
X233918095Y-74419319D02*
X234156190Y-74419319D01*
X234156190Y-74419319D02*
X234251428Y-74466938D01*
X234251428Y-74466938D02*
X234299047Y-74514557D01*
X234299047Y-74514557D02*
X234346666Y-74609795D01*
X234346666Y-74609795D02*
X234346666Y-74705033D01*
X234346666Y-74705033D02*
X234299047Y-74847890D01*
X234299047Y-74847890D02*
X233727619Y-75419319D01*
X233727619Y-75419319D02*
X234346666Y-75419319D01*
X95511580Y-88715666D02*
X95559200Y-88763285D01*
X95559200Y-88763285D02*
X95606819Y-88906142D01*
X95606819Y-88906142D02*
X95606819Y-89001380D01*
X95606819Y-89001380D02*
X95559200Y-89144237D01*
X95559200Y-89144237D02*
X95463961Y-89239475D01*
X95463961Y-89239475D02*
X95368723Y-89287094D01*
X95368723Y-89287094D02*
X95178247Y-89334713D01*
X95178247Y-89334713D02*
X95035390Y-89334713D01*
X95035390Y-89334713D02*
X94844914Y-89287094D01*
X94844914Y-89287094D02*
X94749676Y-89239475D01*
X94749676Y-89239475D02*
X94654438Y-89144237D01*
X94654438Y-89144237D02*
X94606819Y-89001380D01*
X94606819Y-89001380D02*
X94606819Y-88906142D01*
X94606819Y-88906142D02*
X94654438Y-88763285D01*
X94654438Y-88763285D02*
X94702057Y-88715666D01*
X94702057Y-88334713D02*
X94654438Y-88287094D01*
X94654438Y-88287094D02*
X94606819Y-88191856D01*
X94606819Y-88191856D02*
X94606819Y-87953761D01*
X94606819Y-87953761D02*
X94654438Y-87858523D01*
X94654438Y-87858523D02*
X94702057Y-87810904D01*
X94702057Y-87810904D02*
X94797295Y-87763285D01*
X94797295Y-87763285D02*
X94892533Y-87763285D01*
X94892533Y-87763285D02*
X95035390Y-87810904D01*
X95035390Y-87810904D02*
X95606819Y-88382332D01*
X95606819Y-88382332D02*
X95606819Y-87763285D01*
X136724819Y-104495285D02*
X135724819Y-104495285D01*
X135724819Y-104495285D02*
X135724819Y-104257190D01*
X135724819Y-104257190D02*
X135772438Y-104114333D01*
X135772438Y-104114333D02*
X135867676Y-104019095D01*
X135867676Y-104019095D02*
X135962914Y-103971476D01*
X135962914Y-103971476D02*
X136153390Y-103923857D01*
X136153390Y-103923857D02*
X136296247Y-103923857D01*
X136296247Y-103923857D02*
X136486723Y-103971476D01*
X136486723Y-103971476D02*
X136581961Y-104019095D01*
X136581961Y-104019095D02*
X136677200Y-104114333D01*
X136677200Y-104114333D02*
X136724819Y-104257190D01*
X136724819Y-104257190D02*
X136724819Y-104495285D01*
X136724819Y-102971476D02*
X136724819Y-103542904D01*
X136724819Y-103257190D02*
X135724819Y-103257190D01*
X135724819Y-103257190D02*
X135867676Y-103352428D01*
X135867676Y-103352428D02*
X135962914Y-103447666D01*
X135962914Y-103447666D02*
X136010533Y-103542904D01*
X135820057Y-102590523D02*
X135772438Y-102542904D01*
X135772438Y-102542904D02*
X135724819Y-102447666D01*
X135724819Y-102447666D02*
X135724819Y-102209571D01*
X135724819Y-102209571D02*
X135772438Y-102114333D01*
X135772438Y-102114333D02*
X135820057Y-102066714D01*
X135820057Y-102066714D02*
X135915295Y-102019095D01*
X135915295Y-102019095D02*
X136010533Y-102019095D01*
X136010533Y-102019095D02*
X136153390Y-102066714D01*
X136153390Y-102066714D02*
X136724819Y-102638142D01*
X136724819Y-102638142D02*
X136724819Y-102019095D01*
X124578819Y-96422904D02*
X125388342Y-96422904D01*
X125388342Y-96422904D02*
X125483580Y-96375285D01*
X125483580Y-96375285D02*
X125531200Y-96327666D01*
X125531200Y-96327666D02*
X125578819Y-96232428D01*
X125578819Y-96232428D02*
X125578819Y-96041952D01*
X125578819Y-96041952D02*
X125531200Y-95946714D01*
X125531200Y-95946714D02*
X125483580Y-95899095D01*
X125483580Y-95899095D02*
X125388342Y-95851476D01*
X125388342Y-95851476D02*
X124578819Y-95851476D01*
X124912152Y-94946714D02*
X125578819Y-94946714D01*
X124531200Y-95184809D02*
X125245485Y-95422904D01*
X125245485Y-95422904D02*
X125245485Y-94803857D01*
X203826819Y-96344404D02*
X204636342Y-96344404D01*
X204636342Y-96344404D02*
X204731580Y-96296785D01*
X204731580Y-96296785D02*
X204779200Y-96249166D01*
X204779200Y-96249166D02*
X204826819Y-96153928D01*
X204826819Y-96153928D02*
X204826819Y-95963452D01*
X204826819Y-95963452D02*
X204779200Y-95868214D01*
X204779200Y-95868214D02*
X204731580Y-95820595D01*
X204731580Y-95820595D02*
X204636342Y-95772976D01*
X204636342Y-95772976D02*
X203826819Y-95772976D01*
X204826819Y-95249166D02*
X204826819Y-95058690D01*
X204826819Y-95058690D02*
X204779200Y-94963452D01*
X204779200Y-94963452D02*
X204731580Y-94915833D01*
X204731580Y-94915833D02*
X204588723Y-94820595D01*
X204588723Y-94820595D02*
X204398247Y-94772976D01*
X204398247Y-94772976D02*
X204017295Y-94772976D01*
X204017295Y-94772976D02*
X203922057Y-94820595D01*
X203922057Y-94820595D02*
X203874438Y-94868214D01*
X203874438Y-94868214D02*
X203826819Y-94963452D01*
X203826819Y-94963452D02*
X203826819Y-95153928D01*
X203826819Y-95153928D02*
X203874438Y-95249166D01*
X203874438Y-95249166D02*
X203922057Y-95296785D01*
X203922057Y-95296785D02*
X204017295Y-95344404D01*
X204017295Y-95344404D02*
X204255390Y-95344404D01*
X204255390Y-95344404D02*
X204350628Y-95296785D01*
X204350628Y-95296785D02*
X204398247Y-95249166D01*
X204398247Y-95249166D02*
X204445866Y-95153928D01*
X204445866Y-95153928D02*
X204445866Y-94963452D01*
X204445866Y-94963452D02*
X204398247Y-94868214D01*
X204398247Y-94868214D02*
X204350628Y-94820595D01*
X204350628Y-94820595D02*
X204255390Y-94772976D01*
X162632819Y-104416785D02*
X161632819Y-104416785D01*
X161632819Y-104416785D02*
X161632819Y-104178690D01*
X161632819Y-104178690D02*
X161680438Y-104035833D01*
X161680438Y-104035833D02*
X161775676Y-103940595D01*
X161775676Y-103940595D02*
X161870914Y-103892976D01*
X161870914Y-103892976D02*
X162061390Y-103845357D01*
X162061390Y-103845357D02*
X162204247Y-103845357D01*
X162204247Y-103845357D02*
X162394723Y-103892976D01*
X162394723Y-103892976D02*
X162489961Y-103940595D01*
X162489961Y-103940595D02*
X162585200Y-104035833D01*
X162585200Y-104035833D02*
X162632819Y-104178690D01*
X162632819Y-104178690D02*
X162632819Y-104416785D01*
X162632819Y-102892976D02*
X162632819Y-103464404D01*
X162632819Y-103178690D02*
X161632819Y-103178690D01*
X161632819Y-103178690D02*
X161775676Y-103273928D01*
X161775676Y-103273928D02*
X161870914Y-103369166D01*
X161870914Y-103369166D02*
X161918533Y-103464404D01*
X161632819Y-102559642D02*
X161632819Y-101892976D01*
X161632819Y-101892976D02*
X162632819Y-102321547D01*
X99132819Y-104019094D02*
X98132819Y-104019094D01*
X98132819Y-104019094D02*
X98132819Y-103780999D01*
X98132819Y-103780999D02*
X98180438Y-103638142D01*
X98180438Y-103638142D02*
X98275676Y-103542904D01*
X98275676Y-103542904D02*
X98370914Y-103495285D01*
X98370914Y-103495285D02*
X98561390Y-103447666D01*
X98561390Y-103447666D02*
X98704247Y-103447666D01*
X98704247Y-103447666D02*
X98894723Y-103495285D01*
X98894723Y-103495285D02*
X98989961Y-103542904D01*
X98989961Y-103542904D02*
X99085200Y-103638142D01*
X99085200Y-103638142D02*
X99132819Y-103780999D01*
X99132819Y-103780999D02*
X99132819Y-104019094D01*
X98132819Y-102542904D02*
X98132819Y-103019094D01*
X98132819Y-103019094D02*
X98609009Y-103066713D01*
X98609009Y-103066713D02*
X98561390Y-103019094D01*
X98561390Y-103019094D02*
X98513771Y-102923856D01*
X98513771Y-102923856D02*
X98513771Y-102685761D01*
X98513771Y-102685761D02*
X98561390Y-102590523D01*
X98561390Y-102590523D02*
X98609009Y-102542904D01*
X98609009Y-102542904D02*
X98704247Y-102495285D01*
X98704247Y-102495285D02*
X98942342Y-102495285D01*
X98942342Y-102495285D02*
X99037580Y-102542904D01*
X99037580Y-102542904D02*
X99085200Y-102590523D01*
X99085200Y-102590523D02*
X99132819Y-102685761D01*
X99132819Y-102685761D02*
X99132819Y-102923856D01*
X99132819Y-102923856D02*
X99085200Y-103019094D01*
X99085200Y-103019094D02*
X99037580Y-103066713D01*
X141296819Y-104495285D02*
X140296819Y-104495285D01*
X140296819Y-104495285D02*
X140296819Y-104257190D01*
X140296819Y-104257190D02*
X140344438Y-104114333D01*
X140344438Y-104114333D02*
X140439676Y-104019095D01*
X140439676Y-104019095D02*
X140534914Y-103971476D01*
X140534914Y-103971476D02*
X140725390Y-103923857D01*
X140725390Y-103923857D02*
X140868247Y-103923857D01*
X140868247Y-103923857D02*
X141058723Y-103971476D01*
X141058723Y-103971476D02*
X141153961Y-104019095D01*
X141153961Y-104019095D02*
X141249200Y-104114333D01*
X141249200Y-104114333D02*
X141296819Y-104257190D01*
X141296819Y-104257190D02*
X141296819Y-104495285D01*
X141296819Y-102971476D02*
X141296819Y-103542904D01*
X141296819Y-103257190D02*
X140296819Y-103257190D01*
X140296819Y-103257190D02*
X140439676Y-103352428D01*
X140439676Y-103352428D02*
X140534914Y-103447666D01*
X140534914Y-103447666D02*
X140582533Y-103542904D01*
X140296819Y-102638142D02*
X140296819Y-102019095D01*
X140296819Y-102019095D02*
X140677771Y-102352428D01*
X140677771Y-102352428D02*
X140677771Y-102209571D01*
X140677771Y-102209571D02*
X140725390Y-102114333D01*
X140725390Y-102114333D02*
X140773009Y-102066714D01*
X140773009Y-102066714D02*
X140868247Y-102019095D01*
X140868247Y-102019095D02*
X141106342Y-102019095D01*
X141106342Y-102019095D02*
X141201580Y-102066714D01*
X141201580Y-102066714D02*
X141249200Y-102114333D01*
X141249200Y-102114333D02*
X141296819Y-102209571D01*
X141296819Y-102209571D02*
X141296819Y-102495285D01*
X141296819Y-102495285D02*
X141249200Y-102590523D01*
X141249200Y-102590523D02*
X141201580Y-102638142D01*
X143263580Y-88715666D02*
X143311200Y-88763285D01*
X143311200Y-88763285D02*
X143358819Y-88906142D01*
X143358819Y-88906142D02*
X143358819Y-89001380D01*
X143358819Y-89001380D02*
X143311200Y-89144237D01*
X143311200Y-89144237D02*
X143215961Y-89239475D01*
X143215961Y-89239475D02*
X143120723Y-89287094D01*
X143120723Y-89287094D02*
X142930247Y-89334713D01*
X142930247Y-89334713D02*
X142787390Y-89334713D01*
X142787390Y-89334713D02*
X142596914Y-89287094D01*
X142596914Y-89287094D02*
X142501676Y-89239475D01*
X142501676Y-89239475D02*
X142406438Y-89144237D01*
X142406438Y-89144237D02*
X142358819Y-89001380D01*
X142358819Y-89001380D02*
X142358819Y-88906142D01*
X142358819Y-88906142D02*
X142406438Y-88763285D01*
X142406438Y-88763285D02*
X142454057Y-88715666D01*
X142358819Y-87810904D02*
X142358819Y-88287094D01*
X142358819Y-88287094D02*
X142835009Y-88334713D01*
X142835009Y-88334713D02*
X142787390Y-88287094D01*
X142787390Y-88287094D02*
X142739771Y-88191856D01*
X142739771Y-88191856D02*
X142739771Y-87953761D01*
X142739771Y-87953761D02*
X142787390Y-87858523D01*
X142787390Y-87858523D02*
X142835009Y-87810904D01*
X142835009Y-87810904D02*
X142930247Y-87763285D01*
X142930247Y-87763285D02*
X143168342Y-87763285D01*
X143168342Y-87763285D02*
X143263580Y-87810904D01*
X143263580Y-87810904D02*
X143311200Y-87858523D01*
X143311200Y-87858523D02*
X143358819Y-87953761D01*
X143358819Y-87953761D02*
X143358819Y-88191856D01*
X143358819Y-88191856D02*
X143311200Y-88287094D01*
X143311200Y-88287094D02*
X143263580Y-88334713D01*
X168220819Y-104416785D02*
X167220819Y-104416785D01*
X167220819Y-104416785D02*
X167220819Y-104178690D01*
X167220819Y-104178690D02*
X167268438Y-104035833D01*
X167268438Y-104035833D02*
X167363676Y-103940595D01*
X167363676Y-103940595D02*
X167458914Y-103892976D01*
X167458914Y-103892976D02*
X167649390Y-103845357D01*
X167649390Y-103845357D02*
X167792247Y-103845357D01*
X167792247Y-103845357D02*
X167982723Y-103892976D01*
X167982723Y-103892976D02*
X168077961Y-103940595D01*
X168077961Y-103940595D02*
X168173200Y-104035833D01*
X168173200Y-104035833D02*
X168220819Y-104178690D01*
X168220819Y-104178690D02*
X168220819Y-104416785D01*
X168220819Y-102892976D02*
X168220819Y-103464404D01*
X168220819Y-103178690D02*
X167220819Y-103178690D01*
X167220819Y-103178690D02*
X167363676Y-103273928D01*
X167363676Y-103273928D02*
X167458914Y-103369166D01*
X167458914Y-103369166D02*
X167506533Y-103464404D01*
X167649390Y-102321547D02*
X167601771Y-102416785D01*
X167601771Y-102416785D02*
X167554152Y-102464404D01*
X167554152Y-102464404D02*
X167458914Y-102512023D01*
X167458914Y-102512023D02*
X167411295Y-102512023D01*
X167411295Y-102512023D02*
X167316057Y-102464404D01*
X167316057Y-102464404D02*
X167268438Y-102416785D01*
X167268438Y-102416785D02*
X167220819Y-102321547D01*
X167220819Y-102321547D02*
X167220819Y-102131071D01*
X167220819Y-102131071D02*
X167268438Y-102035833D01*
X167268438Y-102035833D02*
X167316057Y-101988214D01*
X167316057Y-101988214D02*
X167411295Y-101940595D01*
X167411295Y-101940595D02*
X167458914Y-101940595D01*
X167458914Y-101940595D02*
X167554152Y-101988214D01*
X167554152Y-101988214D02*
X167601771Y-102035833D01*
X167601771Y-102035833D02*
X167649390Y-102131071D01*
X167649390Y-102131071D02*
X167649390Y-102321547D01*
X167649390Y-102321547D02*
X167697009Y-102416785D01*
X167697009Y-102416785D02*
X167744628Y-102464404D01*
X167744628Y-102464404D02*
X167839866Y-102512023D01*
X167839866Y-102512023D02*
X168030342Y-102512023D01*
X168030342Y-102512023D02*
X168125580Y-102464404D01*
X168125580Y-102464404D02*
X168173200Y-102416785D01*
X168173200Y-102416785D02*
X168220819Y-102321547D01*
X168220819Y-102321547D02*
X168220819Y-102131071D01*
X168220819Y-102131071D02*
X168173200Y-102035833D01*
X168173200Y-102035833D02*
X168125580Y-101988214D01*
X168125580Y-101988214D02*
X168030342Y-101940595D01*
X168030342Y-101940595D02*
X167839866Y-101940595D01*
X167839866Y-101940595D02*
X167744628Y-101988214D01*
X167744628Y-101988214D02*
X167697009Y-102035833D01*
X167697009Y-102035833D02*
X167649390Y-102131071D01*
X157044819Y-104416785D02*
X156044819Y-104416785D01*
X156044819Y-104416785D02*
X156044819Y-104178690D01*
X156044819Y-104178690D02*
X156092438Y-104035833D01*
X156092438Y-104035833D02*
X156187676Y-103940595D01*
X156187676Y-103940595D02*
X156282914Y-103892976D01*
X156282914Y-103892976D02*
X156473390Y-103845357D01*
X156473390Y-103845357D02*
X156616247Y-103845357D01*
X156616247Y-103845357D02*
X156806723Y-103892976D01*
X156806723Y-103892976D02*
X156901961Y-103940595D01*
X156901961Y-103940595D02*
X156997200Y-104035833D01*
X156997200Y-104035833D02*
X157044819Y-104178690D01*
X157044819Y-104178690D02*
X157044819Y-104416785D01*
X157044819Y-102892976D02*
X157044819Y-103464404D01*
X157044819Y-103178690D02*
X156044819Y-103178690D01*
X156044819Y-103178690D02*
X156187676Y-103273928D01*
X156187676Y-103273928D02*
X156282914Y-103369166D01*
X156282914Y-103369166D02*
X156330533Y-103464404D01*
X156044819Y-102035833D02*
X156044819Y-102226309D01*
X156044819Y-102226309D02*
X156092438Y-102321547D01*
X156092438Y-102321547D02*
X156140057Y-102369166D01*
X156140057Y-102369166D02*
X156282914Y-102464404D01*
X156282914Y-102464404D02*
X156473390Y-102512023D01*
X156473390Y-102512023D02*
X156854342Y-102512023D01*
X156854342Y-102512023D02*
X156949580Y-102464404D01*
X156949580Y-102464404D02*
X156997200Y-102416785D01*
X156997200Y-102416785D02*
X157044819Y-102321547D01*
X157044819Y-102321547D02*
X157044819Y-102131071D01*
X157044819Y-102131071D02*
X156997200Y-102035833D01*
X156997200Y-102035833D02*
X156949580Y-101988214D01*
X156949580Y-101988214D02*
X156854342Y-101940595D01*
X156854342Y-101940595D02*
X156616247Y-101940595D01*
X156616247Y-101940595D02*
X156521009Y-101988214D01*
X156521009Y-101988214D02*
X156473390Y-102035833D01*
X156473390Y-102035833D02*
X156425771Y-102131071D01*
X156425771Y-102131071D02*
X156425771Y-102321547D01*
X156425771Y-102321547D02*
X156473390Y-102416785D01*
X156473390Y-102416785D02*
X156521009Y-102464404D01*
X156521009Y-102464404D02*
X156616247Y-102512023D01*
X199716819Y-104495285D02*
X198716819Y-104495285D01*
X198716819Y-104495285D02*
X198716819Y-104257190D01*
X198716819Y-104257190D02*
X198764438Y-104114333D01*
X198764438Y-104114333D02*
X198859676Y-104019095D01*
X198859676Y-104019095D02*
X198954914Y-103971476D01*
X198954914Y-103971476D02*
X199145390Y-103923857D01*
X199145390Y-103923857D02*
X199288247Y-103923857D01*
X199288247Y-103923857D02*
X199478723Y-103971476D01*
X199478723Y-103971476D02*
X199573961Y-104019095D01*
X199573961Y-104019095D02*
X199669200Y-104114333D01*
X199669200Y-104114333D02*
X199716819Y-104257190D01*
X199716819Y-104257190D02*
X199716819Y-104495285D01*
X198812057Y-103542904D02*
X198764438Y-103495285D01*
X198764438Y-103495285D02*
X198716819Y-103400047D01*
X198716819Y-103400047D02*
X198716819Y-103161952D01*
X198716819Y-103161952D02*
X198764438Y-103066714D01*
X198764438Y-103066714D02*
X198812057Y-103019095D01*
X198812057Y-103019095D02*
X198907295Y-102971476D01*
X198907295Y-102971476D02*
X199002533Y-102971476D01*
X199002533Y-102971476D02*
X199145390Y-103019095D01*
X199145390Y-103019095D02*
X199716819Y-103590523D01*
X199716819Y-103590523D02*
X199716819Y-102971476D01*
X199050152Y-102114333D02*
X199716819Y-102114333D01*
X198669200Y-102352428D02*
X199383485Y-102590523D01*
X199383485Y-102590523D02*
X199383485Y-101971476D01*
X190507580Y-88715666D02*
X190555200Y-88763285D01*
X190555200Y-88763285D02*
X190602819Y-88906142D01*
X190602819Y-88906142D02*
X190602819Y-89001380D01*
X190602819Y-89001380D02*
X190555200Y-89144237D01*
X190555200Y-89144237D02*
X190459961Y-89239475D01*
X190459961Y-89239475D02*
X190364723Y-89287094D01*
X190364723Y-89287094D02*
X190174247Y-89334713D01*
X190174247Y-89334713D02*
X190031390Y-89334713D01*
X190031390Y-89334713D02*
X189840914Y-89287094D01*
X189840914Y-89287094D02*
X189745676Y-89239475D01*
X189745676Y-89239475D02*
X189650438Y-89144237D01*
X189650438Y-89144237D02*
X189602819Y-89001380D01*
X189602819Y-89001380D02*
X189602819Y-88906142D01*
X189602819Y-88906142D02*
X189650438Y-88763285D01*
X189650438Y-88763285D02*
X189698057Y-88715666D01*
X190031390Y-88144237D02*
X189983771Y-88239475D01*
X189983771Y-88239475D02*
X189936152Y-88287094D01*
X189936152Y-88287094D02*
X189840914Y-88334713D01*
X189840914Y-88334713D02*
X189793295Y-88334713D01*
X189793295Y-88334713D02*
X189698057Y-88287094D01*
X189698057Y-88287094D02*
X189650438Y-88239475D01*
X189650438Y-88239475D02*
X189602819Y-88144237D01*
X189602819Y-88144237D02*
X189602819Y-87953761D01*
X189602819Y-87953761D02*
X189650438Y-87858523D01*
X189650438Y-87858523D02*
X189698057Y-87810904D01*
X189698057Y-87810904D02*
X189793295Y-87763285D01*
X189793295Y-87763285D02*
X189840914Y-87763285D01*
X189840914Y-87763285D02*
X189936152Y-87810904D01*
X189936152Y-87810904D02*
X189983771Y-87858523D01*
X189983771Y-87858523D02*
X190031390Y-87953761D01*
X190031390Y-87953761D02*
X190031390Y-88144237D01*
X190031390Y-88144237D02*
X190079009Y-88239475D01*
X190079009Y-88239475D02*
X190126628Y-88287094D01*
X190126628Y-88287094D02*
X190221866Y-88334713D01*
X190221866Y-88334713D02*
X190412342Y-88334713D01*
X190412342Y-88334713D02*
X190507580Y-88287094D01*
X190507580Y-88287094D02*
X190555200Y-88239475D01*
X190555200Y-88239475D02*
X190602819Y-88144237D01*
X190602819Y-88144237D02*
X190602819Y-87953761D01*
X190602819Y-87953761D02*
X190555200Y-87858523D01*
X190555200Y-87858523D02*
X190507580Y-87810904D01*
X190507580Y-87810904D02*
X190412342Y-87763285D01*
X190412342Y-87763285D02*
X190221866Y-87763285D01*
X190221866Y-87763285D02*
X190126628Y-87810904D01*
X190126628Y-87810904D02*
X190079009Y-87858523D01*
X190079009Y-87858523D02*
X190031390Y-87953761D01*
X115388819Y-103940594D02*
X114388819Y-103940594D01*
X114388819Y-103940594D02*
X114388819Y-103702499D01*
X114388819Y-103702499D02*
X114436438Y-103559642D01*
X114436438Y-103559642D02*
X114531676Y-103464404D01*
X114531676Y-103464404D02*
X114626914Y-103416785D01*
X114626914Y-103416785D02*
X114817390Y-103369166D01*
X114817390Y-103369166D02*
X114960247Y-103369166D01*
X114960247Y-103369166D02*
X115150723Y-103416785D01*
X115150723Y-103416785D02*
X115245961Y-103464404D01*
X115245961Y-103464404D02*
X115341200Y-103559642D01*
X115341200Y-103559642D02*
X115388819Y-103702499D01*
X115388819Y-103702499D02*
X115388819Y-103940594D01*
X114817390Y-102797737D02*
X114769771Y-102892975D01*
X114769771Y-102892975D02*
X114722152Y-102940594D01*
X114722152Y-102940594D02*
X114626914Y-102988213D01*
X114626914Y-102988213D02*
X114579295Y-102988213D01*
X114579295Y-102988213D02*
X114484057Y-102940594D01*
X114484057Y-102940594D02*
X114436438Y-102892975D01*
X114436438Y-102892975D02*
X114388819Y-102797737D01*
X114388819Y-102797737D02*
X114388819Y-102607261D01*
X114388819Y-102607261D02*
X114436438Y-102512023D01*
X114436438Y-102512023D02*
X114484057Y-102464404D01*
X114484057Y-102464404D02*
X114579295Y-102416785D01*
X114579295Y-102416785D02*
X114626914Y-102416785D01*
X114626914Y-102416785D02*
X114722152Y-102464404D01*
X114722152Y-102464404D02*
X114769771Y-102512023D01*
X114769771Y-102512023D02*
X114817390Y-102607261D01*
X114817390Y-102607261D02*
X114817390Y-102797737D01*
X114817390Y-102797737D02*
X114865009Y-102892975D01*
X114865009Y-102892975D02*
X114912628Y-102940594D01*
X114912628Y-102940594D02*
X115007866Y-102988213D01*
X115007866Y-102988213D02*
X115198342Y-102988213D01*
X115198342Y-102988213D02*
X115293580Y-102940594D01*
X115293580Y-102940594D02*
X115341200Y-102892975D01*
X115341200Y-102892975D02*
X115388819Y-102797737D01*
X115388819Y-102797737D02*
X115388819Y-102607261D01*
X115388819Y-102607261D02*
X115341200Y-102512023D01*
X115341200Y-102512023D02*
X115293580Y-102464404D01*
X115293580Y-102464404D02*
X115198342Y-102416785D01*
X115198342Y-102416785D02*
X115007866Y-102416785D01*
X115007866Y-102416785D02*
X114912628Y-102464404D01*
X114912628Y-102464404D02*
X114865009Y-102512023D01*
X114865009Y-102512023D02*
X114817390Y-102607261D01*
X147266819Y-104495285D02*
X146266819Y-104495285D01*
X146266819Y-104495285D02*
X146266819Y-104257190D01*
X146266819Y-104257190D02*
X146314438Y-104114333D01*
X146314438Y-104114333D02*
X146409676Y-104019095D01*
X146409676Y-104019095D02*
X146504914Y-103971476D01*
X146504914Y-103971476D02*
X146695390Y-103923857D01*
X146695390Y-103923857D02*
X146838247Y-103923857D01*
X146838247Y-103923857D02*
X147028723Y-103971476D01*
X147028723Y-103971476D02*
X147123961Y-104019095D01*
X147123961Y-104019095D02*
X147219200Y-104114333D01*
X147219200Y-104114333D02*
X147266819Y-104257190D01*
X147266819Y-104257190D02*
X147266819Y-104495285D01*
X147266819Y-102971476D02*
X147266819Y-103542904D01*
X147266819Y-103257190D02*
X146266819Y-103257190D01*
X146266819Y-103257190D02*
X146409676Y-103352428D01*
X146409676Y-103352428D02*
X146504914Y-103447666D01*
X146504914Y-103447666D02*
X146552533Y-103542904D01*
X146600152Y-102114333D02*
X147266819Y-102114333D01*
X146219200Y-102352428D02*
X146933485Y-102590523D01*
X146933485Y-102590523D02*
X146933485Y-101971476D01*
X152472819Y-104495285D02*
X151472819Y-104495285D01*
X151472819Y-104495285D02*
X151472819Y-104257190D01*
X151472819Y-104257190D02*
X151520438Y-104114333D01*
X151520438Y-104114333D02*
X151615676Y-104019095D01*
X151615676Y-104019095D02*
X151710914Y-103971476D01*
X151710914Y-103971476D02*
X151901390Y-103923857D01*
X151901390Y-103923857D02*
X152044247Y-103923857D01*
X152044247Y-103923857D02*
X152234723Y-103971476D01*
X152234723Y-103971476D02*
X152329961Y-104019095D01*
X152329961Y-104019095D02*
X152425200Y-104114333D01*
X152425200Y-104114333D02*
X152472819Y-104257190D01*
X152472819Y-104257190D02*
X152472819Y-104495285D01*
X152472819Y-102971476D02*
X152472819Y-103542904D01*
X152472819Y-103257190D02*
X151472819Y-103257190D01*
X151472819Y-103257190D02*
X151615676Y-103352428D01*
X151615676Y-103352428D02*
X151710914Y-103447666D01*
X151710914Y-103447666D02*
X151758533Y-103542904D01*
X151472819Y-102066714D02*
X151472819Y-102542904D01*
X151472819Y-102542904D02*
X151949009Y-102590523D01*
X151949009Y-102590523D02*
X151901390Y-102542904D01*
X151901390Y-102542904D02*
X151853771Y-102447666D01*
X151853771Y-102447666D02*
X151853771Y-102209571D01*
X151853771Y-102209571D02*
X151901390Y-102114333D01*
X151901390Y-102114333D02*
X151949009Y-102066714D01*
X151949009Y-102066714D02*
X152044247Y-102019095D01*
X152044247Y-102019095D02*
X152282342Y-102019095D01*
X152282342Y-102019095D02*
X152377580Y-102066714D01*
X152377580Y-102066714D02*
X152425200Y-102114333D01*
X152425200Y-102114333D02*
X152472819Y-102209571D01*
X152472819Y-102209571D02*
X152472819Y-102447666D01*
X152472819Y-102447666D02*
X152425200Y-102542904D01*
X152425200Y-102542904D02*
X152377580Y-102590523D01*
X159011580Y-88637166D02*
X159059200Y-88684785D01*
X159059200Y-88684785D02*
X159106819Y-88827642D01*
X159106819Y-88827642D02*
X159106819Y-88922880D01*
X159106819Y-88922880D02*
X159059200Y-89065737D01*
X159059200Y-89065737D02*
X158963961Y-89160975D01*
X158963961Y-89160975D02*
X158868723Y-89208594D01*
X158868723Y-89208594D02*
X158678247Y-89256213D01*
X158678247Y-89256213D02*
X158535390Y-89256213D01*
X158535390Y-89256213D02*
X158344914Y-89208594D01*
X158344914Y-89208594D02*
X158249676Y-89160975D01*
X158249676Y-89160975D02*
X158154438Y-89065737D01*
X158154438Y-89065737D02*
X158106819Y-88922880D01*
X158106819Y-88922880D02*
X158106819Y-88827642D01*
X158106819Y-88827642D02*
X158154438Y-88684785D01*
X158154438Y-88684785D02*
X158202057Y-88637166D01*
X158106819Y-87780023D02*
X158106819Y-87970499D01*
X158106819Y-87970499D02*
X158154438Y-88065737D01*
X158154438Y-88065737D02*
X158202057Y-88113356D01*
X158202057Y-88113356D02*
X158344914Y-88208594D01*
X158344914Y-88208594D02*
X158535390Y-88256213D01*
X158535390Y-88256213D02*
X158916342Y-88256213D01*
X158916342Y-88256213D02*
X159011580Y-88208594D01*
X159011580Y-88208594D02*
X159059200Y-88160975D01*
X159059200Y-88160975D02*
X159106819Y-88065737D01*
X159106819Y-88065737D02*
X159106819Y-87875261D01*
X159106819Y-87875261D02*
X159059200Y-87780023D01*
X159059200Y-87780023D02*
X159011580Y-87732404D01*
X159011580Y-87732404D02*
X158916342Y-87684785D01*
X158916342Y-87684785D02*
X158678247Y-87684785D01*
X158678247Y-87684785D02*
X158583009Y-87732404D01*
X158583009Y-87732404D02*
X158535390Y-87780023D01*
X158535390Y-87780023D02*
X158487771Y-87875261D01*
X158487771Y-87875261D02*
X158487771Y-88065737D01*
X158487771Y-88065737D02*
X158535390Y-88160975D01*
X158535390Y-88160975D02*
X158583009Y-88208594D01*
X158583009Y-88208594D02*
X158678247Y-88256213D01*
X188540819Y-104495285D02*
X187540819Y-104495285D01*
X187540819Y-104495285D02*
X187540819Y-104257190D01*
X187540819Y-104257190D02*
X187588438Y-104114333D01*
X187588438Y-104114333D02*
X187683676Y-104019095D01*
X187683676Y-104019095D02*
X187778914Y-103971476D01*
X187778914Y-103971476D02*
X187969390Y-103923857D01*
X187969390Y-103923857D02*
X188112247Y-103923857D01*
X188112247Y-103923857D02*
X188302723Y-103971476D01*
X188302723Y-103971476D02*
X188397961Y-104019095D01*
X188397961Y-104019095D02*
X188493200Y-104114333D01*
X188493200Y-104114333D02*
X188540819Y-104257190D01*
X188540819Y-104257190D02*
X188540819Y-104495285D01*
X187636057Y-103542904D02*
X187588438Y-103495285D01*
X187588438Y-103495285D02*
X187540819Y-103400047D01*
X187540819Y-103400047D02*
X187540819Y-103161952D01*
X187540819Y-103161952D02*
X187588438Y-103066714D01*
X187588438Y-103066714D02*
X187636057Y-103019095D01*
X187636057Y-103019095D02*
X187731295Y-102971476D01*
X187731295Y-102971476D02*
X187826533Y-102971476D01*
X187826533Y-102971476D02*
X187969390Y-103019095D01*
X187969390Y-103019095D02*
X188540819Y-103590523D01*
X188540819Y-103590523D02*
X188540819Y-102971476D01*
X187636057Y-102590523D02*
X187588438Y-102542904D01*
X187588438Y-102542904D02*
X187540819Y-102447666D01*
X187540819Y-102447666D02*
X187540819Y-102209571D01*
X187540819Y-102209571D02*
X187588438Y-102114333D01*
X187588438Y-102114333D02*
X187636057Y-102066714D01*
X187636057Y-102066714D02*
X187731295Y-102019095D01*
X187731295Y-102019095D02*
X187826533Y-102019095D01*
X187826533Y-102019095D02*
X187969390Y-102066714D01*
X187969390Y-102066714D02*
X188540819Y-102638142D01*
X188540819Y-102638142D02*
X188540819Y-102019095D01*
X178380819Y-104416785D02*
X177380819Y-104416785D01*
X177380819Y-104416785D02*
X177380819Y-104178690D01*
X177380819Y-104178690D02*
X177428438Y-104035833D01*
X177428438Y-104035833D02*
X177523676Y-103940595D01*
X177523676Y-103940595D02*
X177618914Y-103892976D01*
X177618914Y-103892976D02*
X177809390Y-103845357D01*
X177809390Y-103845357D02*
X177952247Y-103845357D01*
X177952247Y-103845357D02*
X178142723Y-103892976D01*
X178142723Y-103892976D02*
X178237961Y-103940595D01*
X178237961Y-103940595D02*
X178333200Y-104035833D01*
X178333200Y-104035833D02*
X178380819Y-104178690D01*
X178380819Y-104178690D02*
X178380819Y-104416785D01*
X177476057Y-103464404D02*
X177428438Y-103416785D01*
X177428438Y-103416785D02*
X177380819Y-103321547D01*
X177380819Y-103321547D02*
X177380819Y-103083452D01*
X177380819Y-103083452D02*
X177428438Y-102988214D01*
X177428438Y-102988214D02*
X177476057Y-102940595D01*
X177476057Y-102940595D02*
X177571295Y-102892976D01*
X177571295Y-102892976D02*
X177666533Y-102892976D01*
X177666533Y-102892976D02*
X177809390Y-102940595D01*
X177809390Y-102940595D02*
X178380819Y-103512023D01*
X178380819Y-103512023D02*
X178380819Y-102892976D01*
X177380819Y-102273928D02*
X177380819Y-102178690D01*
X177380819Y-102178690D02*
X177428438Y-102083452D01*
X177428438Y-102083452D02*
X177476057Y-102035833D01*
X177476057Y-102035833D02*
X177571295Y-101988214D01*
X177571295Y-101988214D02*
X177761771Y-101940595D01*
X177761771Y-101940595D02*
X177999866Y-101940595D01*
X177999866Y-101940595D02*
X178190342Y-101988214D01*
X178190342Y-101988214D02*
X178285580Y-102035833D01*
X178285580Y-102035833D02*
X178333200Y-102083452D01*
X178333200Y-102083452D02*
X178380819Y-102178690D01*
X178380819Y-102178690D02*
X178380819Y-102273928D01*
X178380819Y-102273928D02*
X178333200Y-102369166D01*
X178333200Y-102369166D02*
X178285580Y-102416785D01*
X178285580Y-102416785D02*
X178190342Y-102464404D01*
X178190342Y-102464404D02*
X177999866Y-102512023D01*
X177999866Y-102512023D02*
X177761771Y-102512023D01*
X177761771Y-102512023D02*
X177571295Y-102464404D01*
X177571295Y-102464404D02*
X177476057Y-102416785D01*
X177476057Y-102416785D02*
X177428438Y-102369166D01*
X177428438Y-102369166D02*
X177380819Y-102273928D01*
X174759580Y-88637166D02*
X174807200Y-88684785D01*
X174807200Y-88684785D02*
X174854819Y-88827642D01*
X174854819Y-88827642D02*
X174854819Y-88922880D01*
X174854819Y-88922880D02*
X174807200Y-89065737D01*
X174807200Y-89065737D02*
X174711961Y-89160975D01*
X174711961Y-89160975D02*
X174616723Y-89208594D01*
X174616723Y-89208594D02*
X174426247Y-89256213D01*
X174426247Y-89256213D02*
X174283390Y-89256213D01*
X174283390Y-89256213D02*
X174092914Y-89208594D01*
X174092914Y-89208594D02*
X173997676Y-89160975D01*
X173997676Y-89160975D02*
X173902438Y-89065737D01*
X173902438Y-89065737D02*
X173854819Y-88922880D01*
X173854819Y-88922880D02*
X173854819Y-88827642D01*
X173854819Y-88827642D02*
X173902438Y-88684785D01*
X173902438Y-88684785D02*
X173950057Y-88637166D01*
X173854819Y-88303832D02*
X173854819Y-87637166D01*
X173854819Y-87637166D02*
X174854819Y-88065737D01*
X194128819Y-104495285D02*
X193128819Y-104495285D01*
X193128819Y-104495285D02*
X193128819Y-104257190D01*
X193128819Y-104257190D02*
X193176438Y-104114333D01*
X193176438Y-104114333D02*
X193271676Y-104019095D01*
X193271676Y-104019095D02*
X193366914Y-103971476D01*
X193366914Y-103971476D02*
X193557390Y-103923857D01*
X193557390Y-103923857D02*
X193700247Y-103923857D01*
X193700247Y-103923857D02*
X193890723Y-103971476D01*
X193890723Y-103971476D02*
X193985961Y-104019095D01*
X193985961Y-104019095D02*
X194081200Y-104114333D01*
X194081200Y-104114333D02*
X194128819Y-104257190D01*
X194128819Y-104257190D02*
X194128819Y-104495285D01*
X193224057Y-103542904D02*
X193176438Y-103495285D01*
X193176438Y-103495285D02*
X193128819Y-103400047D01*
X193128819Y-103400047D02*
X193128819Y-103161952D01*
X193128819Y-103161952D02*
X193176438Y-103066714D01*
X193176438Y-103066714D02*
X193224057Y-103019095D01*
X193224057Y-103019095D02*
X193319295Y-102971476D01*
X193319295Y-102971476D02*
X193414533Y-102971476D01*
X193414533Y-102971476D02*
X193557390Y-103019095D01*
X193557390Y-103019095D02*
X194128819Y-103590523D01*
X194128819Y-103590523D02*
X194128819Y-102971476D01*
X193128819Y-102638142D02*
X193128819Y-102019095D01*
X193128819Y-102019095D02*
X193509771Y-102352428D01*
X193509771Y-102352428D02*
X193509771Y-102209571D01*
X193509771Y-102209571D02*
X193557390Y-102114333D01*
X193557390Y-102114333D02*
X193605009Y-102066714D01*
X193605009Y-102066714D02*
X193700247Y-102019095D01*
X193700247Y-102019095D02*
X193938342Y-102019095D01*
X193938342Y-102019095D02*
X194033580Y-102066714D01*
X194033580Y-102066714D02*
X194081200Y-102114333D01*
X194081200Y-102114333D02*
X194128819Y-102209571D01*
X194128819Y-102209571D02*
X194128819Y-102495285D01*
X194128819Y-102495285D02*
X194081200Y-102590523D01*
X194081200Y-102590523D02*
X194033580Y-102638142D01*
X183968819Y-104416785D02*
X182968819Y-104416785D01*
X182968819Y-104416785D02*
X182968819Y-104178690D01*
X182968819Y-104178690D02*
X183016438Y-104035833D01*
X183016438Y-104035833D02*
X183111676Y-103940595D01*
X183111676Y-103940595D02*
X183206914Y-103892976D01*
X183206914Y-103892976D02*
X183397390Y-103845357D01*
X183397390Y-103845357D02*
X183540247Y-103845357D01*
X183540247Y-103845357D02*
X183730723Y-103892976D01*
X183730723Y-103892976D02*
X183825961Y-103940595D01*
X183825961Y-103940595D02*
X183921200Y-104035833D01*
X183921200Y-104035833D02*
X183968819Y-104178690D01*
X183968819Y-104178690D02*
X183968819Y-104416785D01*
X183064057Y-103464404D02*
X183016438Y-103416785D01*
X183016438Y-103416785D02*
X182968819Y-103321547D01*
X182968819Y-103321547D02*
X182968819Y-103083452D01*
X182968819Y-103083452D02*
X183016438Y-102988214D01*
X183016438Y-102988214D02*
X183064057Y-102940595D01*
X183064057Y-102940595D02*
X183159295Y-102892976D01*
X183159295Y-102892976D02*
X183254533Y-102892976D01*
X183254533Y-102892976D02*
X183397390Y-102940595D01*
X183397390Y-102940595D02*
X183968819Y-103512023D01*
X183968819Y-103512023D02*
X183968819Y-102892976D01*
X183968819Y-101940595D02*
X183968819Y-102512023D01*
X183968819Y-102226309D02*
X182968819Y-102226309D01*
X182968819Y-102226309D02*
X183111676Y-102321547D01*
X183111676Y-102321547D02*
X183206914Y-102416785D01*
X183206914Y-102416785D02*
X183254533Y-102512023D01*
X187570819Y-96422904D02*
X188380342Y-96422904D01*
X188380342Y-96422904D02*
X188475580Y-96375285D01*
X188475580Y-96375285D02*
X188523200Y-96327666D01*
X188523200Y-96327666D02*
X188570819Y-96232428D01*
X188570819Y-96232428D02*
X188570819Y-96041952D01*
X188570819Y-96041952D02*
X188523200Y-95946714D01*
X188523200Y-95946714D02*
X188475580Y-95899095D01*
X188475580Y-95899095D02*
X188380342Y-95851476D01*
X188380342Y-95851476D02*
X187570819Y-95851476D01*
X187999390Y-95232428D02*
X187951771Y-95327666D01*
X187951771Y-95327666D02*
X187904152Y-95375285D01*
X187904152Y-95375285D02*
X187808914Y-95422904D01*
X187808914Y-95422904D02*
X187761295Y-95422904D01*
X187761295Y-95422904D02*
X187666057Y-95375285D01*
X187666057Y-95375285D02*
X187618438Y-95327666D01*
X187618438Y-95327666D02*
X187570819Y-95232428D01*
X187570819Y-95232428D02*
X187570819Y-95041952D01*
X187570819Y-95041952D02*
X187618438Y-94946714D01*
X187618438Y-94946714D02*
X187666057Y-94899095D01*
X187666057Y-94899095D02*
X187761295Y-94851476D01*
X187761295Y-94851476D02*
X187808914Y-94851476D01*
X187808914Y-94851476D02*
X187904152Y-94899095D01*
X187904152Y-94899095D02*
X187951771Y-94946714D01*
X187951771Y-94946714D02*
X187999390Y-95041952D01*
X187999390Y-95041952D02*
X187999390Y-95232428D01*
X187999390Y-95232428D02*
X188047009Y-95327666D01*
X188047009Y-95327666D02*
X188094628Y-95375285D01*
X188094628Y-95375285D02*
X188189866Y-95422904D01*
X188189866Y-95422904D02*
X188380342Y-95422904D01*
X188380342Y-95422904D02*
X188475580Y-95375285D01*
X188475580Y-95375285D02*
X188523200Y-95327666D01*
X188523200Y-95327666D02*
X188570819Y-95232428D01*
X188570819Y-95232428D02*
X188570819Y-95041952D01*
X188570819Y-95041952D02*
X188523200Y-94946714D01*
X188523200Y-94946714D02*
X188475580Y-94899095D01*
X188475580Y-94899095D02*
X188380342Y-94851476D01*
X188380342Y-94851476D02*
X188189866Y-94851476D01*
X188189866Y-94851476D02*
X188094628Y-94899095D01*
X188094628Y-94899095D02*
X188047009Y-94946714D01*
X188047009Y-94946714D02*
X187999390Y-95041952D01*
X172792819Y-104416785D02*
X171792819Y-104416785D01*
X171792819Y-104416785D02*
X171792819Y-104178690D01*
X171792819Y-104178690D02*
X171840438Y-104035833D01*
X171840438Y-104035833D02*
X171935676Y-103940595D01*
X171935676Y-103940595D02*
X172030914Y-103892976D01*
X172030914Y-103892976D02*
X172221390Y-103845357D01*
X172221390Y-103845357D02*
X172364247Y-103845357D01*
X172364247Y-103845357D02*
X172554723Y-103892976D01*
X172554723Y-103892976D02*
X172649961Y-103940595D01*
X172649961Y-103940595D02*
X172745200Y-104035833D01*
X172745200Y-104035833D02*
X172792819Y-104178690D01*
X172792819Y-104178690D02*
X172792819Y-104416785D01*
X172792819Y-102892976D02*
X172792819Y-103464404D01*
X172792819Y-103178690D02*
X171792819Y-103178690D01*
X171792819Y-103178690D02*
X171935676Y-103273928D01*
X171935676Y-103273928D02*
X172030914Y-103369166D01*
X172030914Y-103369166D02*
X172078533Y-103464404D01*
X172792819Y-102416785D02*
X172792819Y-102226309D01*
X172792819Y-102226309D02*
X172745200Y-102131071D01*
X172745200Y-102131071D02*
X172697580Y-102083452D01*
X172697580Y-102083452D02*
X172554723Y-101988214D01*
X172554723Y-101988214D02*
X172364247Y-101940595D01*
X172364247Y-101940595D02*
X171983295Y-101940595D01*
X171983295Y-101940595D02*
X171888057Y-101988214D01*
X171888057Y-101988214D02*
X171840438Y-102035833D01*
X171840438Y-102035833D02*
X171792819Y-102131071D01*
X171792819Y-102131071D02*
X171792819Y-102321547D01*
X171792819Y-102321547D02*
X171840438Y-102416785D01*
X171840438Y-102416785D02*
X171888057Y-102464404D01*
X171888057Y-102464404D02*
X171983295Y-102512023D01*
X171983295Y-102512023D02*
X172221390Y-102512023D01*
X172221390Y-102512023D02*
X172316628Y-102464404D01*
X172316628Y-102464404D02*
X172364247Y-102416785D01*
X172364247Y-102416785D02*
X172411866Y-102321547D01*
X172411866Y-102321547D02*
X172411866Y-102131071D01*
X172411866Y-102131071D02*
X172364247Y-102035833D01*
X172364247Y-102035833D02*
X172316628Y-101988214D01*
X172316628Y-101988214D02*
X172221390Y-101940595D01*
X156074819Y-96344404D02*
X156884342Y-96344404D01*
X156884342Y-96344404D02*
X156979580Y-96296785D01*
X156979580Y-96296785D02*
X157027200Y-96249166D01*
X157027200Y-96249166D02*
X157074819Y-96153928D01*
X157074819Y-96153928D02*
X157074819Y-95963452D01*
X157074819Y-95963452D02*
X157027200Y-95868214D01*
X157027200Y-95868214D02*
X156979580Y-95820595D01*
X156979580Y-95820595D02*
X156884342Y-95772976D01*
X156884342Y-95772976D02*
X156074819Y-95772976D01*
X156074819Y-94868214D02*
X156074819Y-95058690D01*
X156074819Y-95058690D02*
X156122438Y-95153928D01*
X156122438Y-95153928D02*
X156170057Y-95201547D01*
X156170057Y-95201547D02*
X156312914Y-95296785D01*
X156312914Y-95296785D02*
X156503390Y-95344404D01*
X156503390Y-95344404D02*
X156884342Y-95344404D01*
X156884342Y-95344404D02*
X156979580Y-95296785D01*
X156979580Y-95296785D02*
X157027200Y-95249166D01*
X157027200Y-95249166D02*
X157074819Y-95153928D01*
X157074819Y-95153928D02*
X157074819Y-94963452D01*
X157074819Y-94963452D02*
X157027200Y-94868214D01*
X157027200Y-94868214D02*
X156979580Y-94820595D01*
X156979580Y-94820595D02*
X156884342Y-94772976D01*
X156884342Y-94772976D02*
X156646247Y-94772976D01*
X156646247Y-94772976D02*
X156551009Y-94820595D01*
X156551009Y-94820595D02*
X156503390Y-94868214D01*
X156503390Y-94868214D02*
X156455771Y-94963452D01*
X156455771Y-94963452D02*
X156455771Y-95153928D01*
X156455771Y-95153928D02*
X156503390Y-95249166D01*
X156503390Y-95249166D02*
X156551009Y-95296785D01*
X156551009Y-95296785D02*
X156646247Y-95344404D01*
X215972819Y-104416785D02*
X214972819Y-104416785D01*
X214972819Y-104416785D02*
X214972819Y-104178690D01*
X214972819Y-104178690D02*
X215020438Y-104035833D01*
X215020438Y-104035833D02*
X215115676Y-103940595D01*
X215115676Y-103940595D02*
X215210914Y-103892976D01*
X215210914Y-103892976D02*
X215401390Y-103845357D01*
X215401390Y-103845357D02*
X215544247Y-103845357D01*
X215544247Y-103845357D02*
X215734723Y-103892976D01*
X215734723Y-103892976D02*
X215829961Y-103940595D01*
X215829961Y-103940595D02*
X215925200Y-104035833D01*
X215925200Y-104035833D02*
X215972819Y-104178690D01*
X215972819Y-104178690D02*
X215972819Y-104416785D01*
X215068057Y-103464404D02*
X215020438Y-103416785D01*
X215020438Y-103416785D02*
X214972819Y-103321547D01*
X214972819Y-103321547D02*
X214972819Y-103083452D01*
X214972819Y-103083452D02*
X215020438Y-102988214D01*
X215020438Y-102988214D02*
X215068057Y-102940595D01*
X215068057Y-102940595D02*
X215163295Y-102892976D01*
X215163295Y-102892976D02*
X215258533Y-102892976D01*
X215258533Y-102892976D02*
X215401390Y-102940595D01*
X215401390Y-102940595D02*
X215972819Y-103512023D01*
X215972819Y-103512023D02*
X215972819Y-102892976D01*
X214972819Y-102559642D02*
X214972819Y-101892976D01*
X214972819Y-101892976D02*
X215972819Y-102321547D01*
X93544819Y-104019094D02*
X92544819Y-104019094D01*
X92544819Y-104019094D02*
X92544819Y-103780999D01*
X92544819Y-103780999D02*
X92592438Y-103638142D01*
X92592438Y-103638142D02*
X92687676Y-103542904D01*
X92687676Y-103542904D02*
X92782914Y-103495285D01*
X92782914Y-103495285D02*
X92973390Y-103447666D01*
X92973390Y-103447666D02*
X93116247Y-103447666D01*
X93116247Y-103447666D02*
X93306723Y-103495285D01*
X93306723Y-103495285D02*
X93401961Y-103542904D01*
X93401961Y-103542904D02*
X93497200Y-103638142D01*
X93497200Y-103638142D02*
X93544819Y-103780999D01*
X93544819Y-103780999D02*
X93544819Y-104019094D01*
X92878152Y-102590523D02*
X93544819Y-102590523D01*
X92497200Y-102828618D02*
X93211485Y-103066713D01*
X93211485Y-103066713D02*
X93211485Y-102447666D01*
X206763580Y-88637166D02*
X206811200Y-88684785D01*
X206811200Y-88684785D02*
X206858819Y-88827642D01*
X206858819Y-88827642D02*
X206858819Y-88922880D01*
X206858819Y-88922880D02*
X206811200Y-89065737D01*
X206811200Y-89065737D02*
X206715961Y-89160975D01*
X206715961Y-89160975D02*
X206620723Y-89208594D01*
X206620723Y-89208594D02*
X206430247Y-89256213D01*
X206430247Y-89256213D02*
X206287390Y-89256213D01*
X206287390Y-89256213D02*
X206096914Y-89208594D01*
X206096914Y-89208594D02*
X206001676Y-89160975D01*
X206001676Y-89160975D02*
X205906438Y-89065737D01*
X205906438Y-89065737D02*
X205858819Y-88922880D01*
X205858819Y-88922880D02*
X205858819Y-88827642D01*
X205858819Y-88827642D02*
X205906438Y-88684785D01*
X205906438Y-88684785D02*
X205954057Y-88637166D01*
X206858819Y-88160975D02*
X206858819Y-87970499D01*
X206858819Y-87970499D02*
X206811200Y-87875261D01*
X206811200Y-87875261D02*
X206763580Y-87827642D01*
X206763580Y-87827642D02*
X206620723Y-87732404D01*
X206620723Y-87732404D02*
X206430247Y-87684785D01*
X206430247Y-87684785D02*
X206049295Y-87684785D01*
X206049295Y-87684785D02*
X205954057Y-87732404D01*
X205954057Y-87732404D02*
X205906438Y-87780023D01*
X205906438Y-87780023D02*
X205858819Y-87875261D01*
X205858819Y-87875261D02*
X205858819Y-88065737D01*
X205858819Y-88065737D02*
X205906438Y-88160975D01*
X205906438Y-88160975D02*
X205954057Y-88208594D01*
X205954057Y-88208594D02*
X206049295Y-88256213D01*
X206049295Y-88256213D02*
X206287390Y-88256213D01*
X206287390Y-88256213D02*
X206382628Y-88208594D01*
X206382628Y-88208594D02*
X206430247Y-88160975D01*
X206430247Y-88160975D02*
X206477866Y-88065737D01*
X206477866Y-88065737D02*
X206477866Y-87875261D01*
X206477866Y-87875261D02*
X206430247Y-87780023D01*
X206430247Y-87780023D02*
X206382628Y-87732404D01*
X206382628Y-87732404D02*
X206287390Y-87684785D01*
X131136819Y-104495285D02*
X130136819Y-104495285D01*
X130136819Y-104495285D02*
X130136819Y-104257190D01*
X130136819Y-104257190D02*
X130184438Y-104114333D01*
X130184438Y-104114333D02*
X130279676Y-104019095D01*
X130279676Y-104019095D02*
X130374914Y-103971476D01*
X130374914Y-103971476D02*
X130565390Y-103923857D01*
X130565390Y-103923857D02*
X130708247Y-103923857D01*
X130708247Y-103923857D02*
X130898723Y-103971476D01*
X130898723Y-103971476D02*
X130993961Y-104019095D01*
X130993961Y-104019095D02*
X131089200Y-104114333D01*
X131089200Y-104114333D02*
X131136819Y-104257190D01*
X131136819Y-104257190D02*
X131136819Y-104495285D01*
X131136819Y-102971476D02*
X131136819Y-103542904D01*
X131136819Y-103257190D02*
X130136819Y-103257190D01*
X130136819Y-103257190D02*
X130279676Y-103352428D01*
X130279676Y-103352428D02*
X130374914Y-103447666D01*
X130374914Y-103447666D02*
X130422533Y-103542904D01*
X131136819Y-102019095D02*
X131136819Y-102590523D01*
X131136819Y-102304809D02*
X130136819Y-102304809D01*
X130136819Y-102304809D02*
X130279676Y-102400047D01*
X130279676Y-102400047D02*
X130374914Y-102495285D01*
X130374914Y-102495285D02*
X130422533Y-102590523D01*
X140326819Y-96422904D02*
X141136342Y-96422904D01*
X141136342Y-96422904D02*
X141231580Y-96375285D01*
X141231580Y-96375285D02*
X141279200Y-96327666D01*
X141279200Y-96327666D02*
X141326819Y-96232428D01*
X141326819Y-96232428D02*
X141326819Y-96041952D01*
X141326819Y-96041952D02*
X141279200Y-95946714D01*
X141279200Y-95946714D02*
X141231580Y-95899095D01*
X141231580Y-95899095D02*
X141136342Y-95851476D01*
X141136342Y-95851476D02*
X140326819Y-95851476D01*
X140326819Y-94899095D02*
X140326819Y-95375285D01*
X140326819Y-95375285D02*
X140803009Y-95422904D01*
X140803009Y-95422904D02*
X140755390Y-95375285D01*
X140755390Y-95375285D02*
X140707771Y-95280047D01*
X140707771Y-95280047D02*
X140707771Y-95041952D01*
X140707771Y-95041952D02*
X140755390Y-94946714D01*
X140755390Y-94946714D02*
X140803009Y-94899095D01*
X140803009Y-94899095D02*
X140898247Y-94851476D01*
X140898247Y-94851476D02*
X141136342Y-94851476D01*
X141136342Y-94851476D02*
X141231580Y-94899095D01*
X141231580Y-94899095D02*
X141279200Y-94946714D01*
X141279200Y-94946714D02*
X141326819Y-95041952D01*
X141326819Y-95041952D02*
X141326819Y-95280047D01*
X141326819Y-95280047D02*
X141279200Y-95375285D01*
X141279200Y-95375285D02*
X141231580Y-95422904D01*
X127515580Y-88715666D02*
X127563200Y-88763285D01*
X127563200Y-88763285D02*
X127610819Y-88906142D01*
X127610819Y-88906142D02*
X127610819Y-89001380D01*
X127610819Y-89001380D02*
X127563200Y-89144237D01*
X127563200Y-89144237D02*
X127467961Y-89239475D01*
X127467961Y-89239475D02*
X127372723Y-89287094D01*
X127372723Y-89287094D02*
X127182247Y-89334713D01*
X127182247Y-89334713D02*
X127039390Y-89334713D01*
X127039390Y-89334713D02*
X126848914Y-89287094D01*
X126848914Y-89287094D02*
X126753676Y-89239475D01*
X126753676Y-89239475D02*
X126658438Y-89144237D01*
X126658438Y-89144237D02*
X126610819Y-89001380D01*
X126610819Y-89001380D02*
X126610819Y-88906142D01*
X126610819Y-88906142D02*
X126658438Y-88763285D01*
X126658438Y-88763285D02*
X126706057Y-88715666D01*
X126944152Y-87858523D02*
X127610819Y-87858523D01*
X126563200Y-88096618D02*
X127277485Y-88334713D01*
X127277485Y-88334713D02*
X127277485Y-87715666D01*
X220082819Y-96820594D02*
X220892342Y-96820594D01*
X220892342Y-96820594D02*
X220987580Y-96772975D01*
X220987580Y-96772975D02*
X221035200Y-96725356D01*
X221035200Y-96725356D02*
X221082819Y-96630118D01*
X221082819Y-96630118D02*
X221082819Y-96439642D01*
X221082819Y-96439642D02*
X221035200Y-96344404D01*
X221035200Y-96344404D02*
X220987580Y-96296785D01*
X220987580Y-96296785D02*
X220892342Y-96249166D01*
X220892342Y-96249166D02*
X220082819Y-96249166D01*
X221082819Y-95249166D02*
X221082819Y-95820594D01*
X221082819Y-95534880D02*
X220082819Y-95534880D01*
X220082819Y-95534880D02*
X220225676Y-95630118D01*
X220225676Y-95630118D02*
X220320914Y-95725356D01*
X220320914Y-95725356D02*
X220368533Y-95820594D01*
X220082819Y-94630118D02*
X220082819Y-94534880D01*
X220082819Y-94534880D02*
X220130438Y-94439642D01*
X220130438Y-94439642D02*
X220178057Y-94392023D01*
X220178057Y-94392023D02*
X220273295Y-94344404D01*
X220273295Y-94344404D02*
X220463771Y-94296785D01*
X220463771Y-94296785D02*
X220701866Y-94296785D01*
X220701866Y-94296785D02*
X220892342Y-94344404D01*
X220892342Y-94344404D02*
X220987580Y-94392023D01*
X220987580Y-94392023D02*
X221035200Y-94439642D01*
X221035200Y-94439642D02*
X221082819Y-94534880D01*
X221082819Y-94534880D02*
X221082819Y-94630118D01*
X221082819Y-94630118D02*
X221035200Y-94725356D01*
X221035200Y-94725356D02*
X220987580Y-94772975D01*
X220987580Y-94772975D02*
X220892342Y-94820594D01*
X220892342Y-94820594D02*
X220701866Y-94868213D01*
X220701866Y-94868213D02*
X220463771Y-94868213D01*
X220463771Y-94868213D02*
X220273295Y-94820594D01*
X220273295Y-94820594D02*
X220178057Y-94772975D01*
X220178057Y-94772975D02*
X220130438Y-94725356D01*
X220130438Y-94725356D02*
X220082819Y-94630118D01*
X111767580Y-88637166D02*
X111815200Y-88684785D01*
X111815200Y-88684785D02*
X111862819Y-88827642D01*
X111862819Y-88827642D02*
X111862819Y-88922880D01*
X111862819Y-88922880D02*
X111815200Y-89065737D01*
X111815200Y-89065737D02*
X111719961Y-89160975D01*
X111719961Y-89160975D02*
X111624723Y-89208594D01*
X111624723Y-89208594D02*
X111434247Y-89256213D01*
X111434247Y-89256213D02*
X111291390Y-89256213D01*
X111291390Y-89256213D02*
X111100914Y-89208594D01*
X111100914Y-89208594D02*
X111005676Y-89160975D01*
X111005676Y-89160975D02*
X110910438Y-89065737D01*
X110910438Y-89065737D02*
X110862819Y-88922880D01*
X110862819Y-88922880D02*
X110862819Y-88827642D01*
X110862819Y-88827642D02*
X110910438Y-88684785D01*
X110910438Y-88684785D02*
X110958057Y-88637166D01*
X110862819Y-88303832D02*
X110862819Y-87684785D01*
X110862819Y-87684785D02*
X111243771Y-88018118D01*
X111243771Y-88018118D02*
X111243771Y-87875261D01*
X111243771Y-87875261D02*
X111291390Y-87780023D01*
X111291390Y-87780023D02*
X111339009Y-87732404D01*
X111339009Y-87732404D02*
X111434247Y-87684785D01*
X111434247Y-87684785D02*
X111672342Y-87684785D01*
X111672342Y-87684785D02*
X111767580Y-87732404D01*
X111767580Y-87732404D02*
X111815200Y-87780023D01*
X111815200Y-87780023D02*
X111862819Y-87875261D01*
X111862819Y-87875261D02*
X111862819Y-88160975D01*
X111862819Y-88160975D02*
X111815200Y-88256213D01*
X111815200Y-88256213D02*
X111767580Y-88303832D01*
X109800819Y-103940594D02*
X108800819Y-103940594D01*
X108800819Y-103940594D02*
X108800819Y-103702499D01*
X108800819Y-103702499D02*
X108848438Y-103559642D01*
X108848438Y-103559642D02*
X108943676Y-103464404D01*
X108943676Y-103464404D02*
X109038914Y-103416785D01*
X109038914Y-103416785D02*
X109229390Y-103369166D01*
X109229390Y-103369166D02*
X109372247Y-103369166D01*
X109372247Y-103369166D02*
X109562723Y-103416785D01*
X109562723Y-103416785D02*
X109657961Y-103464404D01*
X109657961Y-103464404D02*
X109753200Y-103559642D01*
X109753200Y-103559642D02*
X109800819Y-103702499D01*
X109800819Y-103702499D02*
X109800819Y-103940594D01*
X108800819Y-103035832D02*
X108800819Y-102369166D01*
X108800819Y-102369166D02*
X109800819Y-102797737D01*
X120976819Y-103940594D02*
X119976819Y-103940594D01*
X119976819Y-103940594D02*
X119976819Y-103702499D01*
X119976819Y-103702499D02*
X120024438Y-103559642D01*
X120024438Y-103559642D02*
X120119676Y-103464404D01*
X120119676Y-103464404D02*
X120214914Y-103416785D01*
X120214914Y-103416785D02*
X120405390Y-103369166D01*
X120405390Y-103369166D02*
X120548247Y-103369166D01*
X120548247Y-103369166D02*
X120738723Y-103416785D01*
X120738723Y-103416785D02*
X120833961Y-103464404D01*
X120833961Y-103464404D02*
X120929200Y-103559642D01*
X120929200Y-103559642D02*
X120976819Y-103702499D01*
X120976819Y-103702499D02*
X120976819Y-103940594D01*
X120976819Y-102892975D02*
X120976819Y-102702499D01*
X120976819Y-102702499D02*
X120929200Y-102607261D01*
X120929200Y-102607261D02*
X120881580Y-102559642D01*
X120881580Y-102559642D02*
X120738723Y-102464404D01*
X120738723Y-102464404D02*
X120548247Y-102416785D01*
X120548247Y-102416785D02*
X120167295Y-102416785D01*
X120167295Y-102416785D02*
X120072057Y-102464404D01*
X120072057Y-102464404D02*
X120024438Y-102512023D01*
X120024438Y-102512023D02*
X119976819Y-102607261D01*
X119976819Y-102607261D02*
X119976819Y-102797737D01*
X119976819Y-102797737D02*
X120024438Y-102892975D01*
X120024438Y-102892975D02*
X120072057Y-102940594D01*
X120072057Y-102940594D02*
X120167295Y-102988213D01*
X120167295Y-102988213D02*
X120405390Y-102988213D01*
X120405390Y-102988213D02*
X120500628Y-102940594D01*
X120500628Y-102940594D02*
X120548247Y-102892975D01*
X120548247Y-102892975D02*
X120595866Y-102797737D01*
X120595866Y-102797737D02*
X120595866Y-102607261D01*
X120595866Y-102607261D02*
X120548247Y-102512023D01*
X120548247Y-102512023D02*
X120500628Y-102464404D01*
X120500628Y-102464404D02*
X120405390Y-102416785D01*
X108830819Y-96344404D02*
X109640342Y-96344404D01*
X109640342Y-96344404D02*
X109735580Y-96296785D01*
X109735580Y-96296785D02*
X109783200Y-96249166D01*
X109783200Y-96249166D02*
X109830819Y-96153928D01*
X109830819Y-96153928D02*
X109830819Y-95963452D01*
X109830819Y-95963452D02*
X109783200Y-95868214D01*
X109783200Y-95868214D02*
X109735580Y-95820595D01*
X109735580Y-95820595D02*
X109640342Y-95772976D01*
X109640342Y-95772976D02*
X108830819Y-95772976D01*
X108830819Y-95392023D02*
X108830819Y-94772976D01*
X108830819Y-94772976D02*
X109211771Y-95106309D01*
X109211771Y-95106309D02*
X109211771Y-94963452D01*
X109211771Y-94963452D02*
X109259390Y-94868214D01*
X109259390Y-94868214D02*
X109307009Y-94820595D01*
X109307009Y-94820595D02*
X109402247Y-94772976D01*
X109402247Y-94772976D02*
X109640342Y-94772976D01*
X109640342Y-94772976D02*
X109735580Y-94820595D01*
X109735580Y-94820595D02*
X109783200Y-94868214D01*
X109783200Y-94868214D02*
X109830819Y-94963452D01*
X109830819Y-94963452D02*
X109830819Y-95249166D01*
X109830819Y-95249166D02*
X109783200Y-95344404D01*
X109783200Y-95344404D02*
X109735580Y-95392023D01*
X221052819Y-104416785D02*
X220052819Y-104416785D01*
X220052819Y-104416785D02*
X220052819Y-104178690D01*
X220052819Y-104178690D02*
X220100438Y-104035833D01*
X220100438Y-104035833D02*
X220195676Y-103940595D01*
X220195676Y-103940595D02*
X220290914Y-103892976D01*
X220290914Y-103892976D02*
X220481390Y-103845357D01*
X220481390Y-103845357D02*
X220624247Y-103845357D01*
X220624247Y-103845357D02*
X220814723Y-103892976D01*
X220814723Y-103892976D02*
X220909961Y-103940595D01*
X220909961Y-103940595D02*
X221005200Y-104035833D01*
X221005200Y-104035833D02*
X221052819Y-104178690D01*
X221052819Y-104178690D02*
X221052819Y-104416785D01*
X220148057Y-103464404D02*
X220100438Y-103416785D01*
X220100438Y-103416785D02*
X220052819Y-103321547D01*
X220052819Y-103321547D02*
X220052819Y-103083452D01*
X220052819Y-103083452D02*
X220100438Y-102988214D01*
X220100438Y-102988214D02*
X220148057Y-102940595D01*
X220148057Y-102940595D02*
X220243295Y-102892976D01*
X220243295Y-102892976D02*
X220338533Y-102892976D01*
X220338533Y-102892976D02*
X220481390Y-102940595D01*
X220481390Y-102940595D02*
X221052819Y-103512023D01*
X221052819Y-103512023D02*
X221052819Y-102892976D01*
X220481390Y-102321547D02*
X220433771Y-102416785D01*
X220433771Y-102416785D02*
X220386152Y-102464404D01*
X220386152Y-102464404D02*
X220290914Y-102512023D01*
X220290914Y-102512023D02*
X220243295Y-102512023D01*
X220243295Y-102512023D02*
X220148057Y-102464404D01*
X220148057Y-102464404D02*
X220100438Y-102416785D01*
X220100438Y-102416785D02*
X220052819Y-102321547D01*
X220052819Y-102321547D02*
X220052819Y-102131071D01*
X220052819Y-102131071D02*
X220100438Y-102035833D01*
X220100438Y-102035833D02*
X220148057Y-101988214D01*
X220148057Y-101988214D02*
X220243295Y-101940595D01*
X220243295Y-101940595D02*
X220290914Y-101940595D01*
X220290914Y-101940595D02*
X220386152Y-101988214D01*
X220386152Y-101988214D02*
X220433771Y-102035833D01*
X220433771Y-102035833D02*
X220481390Y-102131071D01*
X220481390Y-102131071D02*
X220481390Y-102321547D01*
X220481390Y-102321547D02*
X220529009Y-102416785D01*
X220529009Y-102416785D02*
X220576628Y-102464404D01*
X220576628Y-102464404D02*
X220671866Y-102512023D01*
X220671866Y-102512023D02*
X220862342Y-102512023D01*
X220862342Y-102512023D02*
X220957580Y-102464404D01*
X220957580Y-102464404D02*
X221005200Y-102416785D01*
X221005200Y-102416785D02*
X221052819Y-102321547D01*
X221052819Y-102321547D02*
X221052819Y-102131071D01*
X221052819Y-102131071D02*
X221005200Y-102035833D01*
X221005200Y-102035833D02*
X220957580Y-101988214D01*
X220957580Y-101988214D02*
X220862342Y-101940595D01*
X220862342Y-101940595D02*
X220671866Y-101940595D01*
X220671866Y-101940595D02*
X220576628Y-101988214D01*
X220576628Y-101988214D02*
X220529009Y-102035833D01*
X220529009Y-102035833D02*
X220481390Y-102131071D01*
X104720819Y-104019094D02*
X103720819Y-104019094D01*
X103720819Y-104019094D02*
X103720819Y-103780999D01*
X103720819Y-103780999D02*
X103768438Y-103638142D01*
X103768438Y-103638142D02*
X103863676Y-103542904D01*
X103863676Y-103542904D02*
X103958914Y-103495285D01*
X103958914Y-103495285D02*
X104149390Y-103447666D01*
X104149390Y-103447666D02*
X104292247Y-103447666D01*
X104292247Y-103447666D02*
X104482723Y-103495285D01*
X104482723Y-103495285D02*
X104577961Y-103542904D01*
X104577961Y-103542904D02*
X104673200Y-103638142D01*
X104673200Y-103638142D02*
X104720819Y-103780999D01*
X104720819Y-103780999D02*
X104720819Y-104019094D01*
X103720819Y-102590523D02*
X103720819Y-102780999D01*
X103720819Y-102780999D02*
X103768438Y-102876237D01*
X103768438Y-102876237D02*
X103816057Y-102923856D01*
X103816057Y-102923856D02*
X103958914Y-103019094D01*
X103958914Y-103019094D02*
X104149390Y-103066713D01*
X104149390Y-103066713D02*
X104530342Y-103066713D01*
X104530342Y-103066713D02*
X104625580Y-103019094D01*
X104625580Y-103019094D02*
X104673200Y-102971475D01*
X104673200Y-102971475D02*
X104720819Y-102876237D01*
X104720819Y-102876237D02*
X104720819Y-102685761D01*
X104720819Y-102685761D02*
X104673200Y-102590523D01*
X104673200Y-102590523D02*
X104625580Y-102542904D01*
X104625580Y-102542904D02*
X104530342Y-102495285D01*
X104530342Y-102495285D02*
X104292247Y-102495285D01*
X104292247Y-102495285D02*
X104197009Y-102542904D01*
X104197009Y-102542904D02*
X104149390Y-102590523D01*
X104149390Y-102590523D02*
X104101771Y-102685761D01*
X104101771Y-102685761D02*
X104101771Y-102876237D01*
X104101771Y-102876237D02*
X104149390Y-102971475D01*
X104149390Y-102971475D02*
X104197009Y-103019094D01*
X104197009Y-103019094D02*
X104292247Y-103066713D01*
X125548819Y-104495285D02*
X124548819Y-104495285D01*
X124548819Y-104495285D02*
X124548819Y-104257190D01*
X124548819Y-104257190D02*
X124596438Y-104114333D01*
X124596438Y-104114333D02*
X124691676Y-104019095D01*
X124691676Y-104019095D02*
X124786914Y-103971476D01*
X124786914Y-103971476D02*
X124977390Y-103923857D01*
X124977390Y-103923857D02*
X125120247Y-103923857D01*
X125120247Y-103923857D02*
X125310723Y-103971476D01*
X125310723Y-103971476D02*
X125405961Y-104019095D01*
X125405961Y-104019095D02*
X125501200Y-104114333D01*
X125501200Y-104114333D02*
X125548819Y-104257190D01*
X125548819Y-104257190D02*
X125548819Y-104495285D01*
X125548819Y-102971476D02*
X125548819Y-103542904D01*
X125548819Y-103257190D02*
X124548819Y-103257190D01*
X124548819Y-103257190D02*
X124691676Y-103352428D01*
X124691676Y-103352428D02*
X124786914Y-103447666D01*
X124786914Y-103447666D02*
X124834533Y-103542904D01*
X124548819Y-102352428D02*
X124548819Y-102257190D01*
X124548819Y-102257190D02*
X124596438Y-102161952D01*
X124596438Y-102161952D02*
X124644057Y-102114333D01*
X124644057Y-102114333D02*
X124739295Y-102066714D01*
X124739295Y-102066714D02*
X124929771Y-102019095D01*
X124929771Y-102019095D02*
X125167866Y-102019095D01*
X125167866Y-102019095D02*
X125358342Y-102066714D01*
X125358342Y-102066714D02*
X125453580Y-102114333D01*
X125453580Y-102114333D02*
X125501200Y-102161952D01*
X125501200Y-102161952D02*
X125548819Y-102257190D01*
X125548819Y-102257190D02*
X125548819Y-102352428D01*
X125548819Y-102352428D02*
X125501200Y-102447666D01*
X125501200Y-102447666D02*
X125453580Y-102495285D01*
X125453580Y-102495285D02*
X125358342Y-102542904D01*
X125358342Y-102542904D02*
X125167866Y-102590523D01*
X125167866Y-102590523D02*
X124929771Y-102590523D01*
X124929771Y-102590523D02*
X124739295Y-102542904D01*
X124739295Y-102542904D02*
X124644057Y-102495285D01*
X124644057Y-102495285D02*
X124596438Y-102447666D01*
X124596438Y-102447666D02*
X124548819Y-102352428D01*
X226640819Y-104416785D02*
X225640819Y-104416785D01*
X225640819Y-104416785D02*
X225640819Y-104178690D01*
X225640819Y-104178690D02*
X225688438Y-104035833D01*
X225688438Y-104035833D02*
X225783676Y-103940595D01*
X225783676Y-103940595D02*
X225878914Y-103892976D01*
X225878914Y-103892976D02*
X226069390Y-103845357D01*
X226069390Y-103845357D02*
X226212247Y-103845357D01*
X226212247Y-103845357D02*
X226402723Y-103892976D01*
X226402723Y-103892976D02*
X226497961Y-103940595D01*
X226497961Y-103940595D02*
X226593200Y-104035833D01*
X226593200Y-104035833D02*
X226640819Y-104178690D01*
X226640819Y-104178690D02*
X226640819Y-104416785D01*
X225736057Y-103464404D02*
X225688438Y-103416785D01*
X225688438Y-103416785D02*
X225640819Y-103321547D01*
X225640819Y-103321547D02*
X225640819Y-103083452D01*
X225640819Y-103083452D02*
X225688438Y-102988214D01*
X225688438Y-102988214D02*
X225736057Y-102940595D01*
X225736057Y-102940595D02*
X225831295Y-102892976D01*
X225831295Y-102892976D02*
X225926533Y-102892976D01*
X225926533Y-102892976D02*
X226069390Y-102940595D01*
X226069390Y-102940595D02*
X226640819Y-103512023D01*
X226640819Y-103512023D02*
X226640819Y-102892976D01*
X226640819Y-102416785D02*
X226640819Y-102226309D01*
X226640819Y-102226309D02*
X226593200Y-102131071D01*
X226593200Y-102131071D02*
X226545580Y-102083452D01*
X226545580Y-102083452D02*
X226402723Y-101988214D01*
X226402723Y-101988214D02*
X226212247Y-101940595D01*
X226212247Y-101940595D02*
X225831295Y-101940595D01*
X225831295Y-101940595D02*
X225736057Y-101988214D01*
X225736057Y-101988214D02*
X225688438Y-102035833D01*
X225688438Y-102035833D02*
X225640819Y-102131071D01*
X225640819Y-102131071D02*
X225640819Y-102321547D01*
X225640819Y-102321547D02*
X225688438Y-102416785D01*
X225688438Y-102416785D02*
X225736057Y-102464404D01*
X225736057Y-102464404D02*
X225831295Y-102512023D01*
X225831295Y-102512023D02*
X226069390Y-102512023D01*
X226069390Y-102512023D02*
X226164628Y-102464404D01*
X226164628Y-102464404D02*
X226212247Y-102416785D01*
X226212247Y-102416785D02*
X226259866Y-102321547D01*
X226259866Y-102321547D02*
X226259866Y-102131071D01*
X226259866Y-102131071D02*
X226212247Y-102035833D01*
X226212247Y-102035833D02*
X226164628Y-101988214D01*
X226164628Y-101988214D02*
X226069390Y-101940595D01*
X204796819Y-104416785D02*
X203796819Y-104416785D01*
X203796819Y-104416785D02*
X203796819Y-104178690D01*
X203796819Y-104178690D02*
X203844438Y-104035833D01*
X203844438Y-104035833D02*
X203939676Y-103940595D01*
X203939676Y-103940595D02*
X204034914Y-103892976D01*
X204034914Y-103892976D02*
X204225390Y-103845357D01*
X204225390Y-103845357D02*
X204368247Y-103845357D01*
X204368247Y-103845357D02*
X204558723Y-103892976D01*
X204558723Y-103892976D02*
X204653961Y-103940595D01*
X204653961Y-103940595D02*
X204749200Y-104035833D01*
X204749200Y-104035833D02*
X204796819Y-104178690D01*
X204796819Y-104178690D02*
X204796819Y-104416785D01*
X203892057Y-103464404D02*
X203844438Y-103416785D01*
X203844438Y-103416785D02*
X203796819Y-103321547D01*
X203796819Y-103321547D02*
X203796819Y-103083452D01*
X203796819Y-103083452D02*
X203844438Y-102988214D01*
X203844438Y-102988214D02*
X203892057Y-102940595D01*
X203892057Y-102940595D02*
X203987295Y-102892976D01*
X203987295Y-102892976D02*
X204082533Y-102892976D01*
X204082533Y-102892976D02*
X204225390Y-102940595D01*
X204225390Y-102940595D02*
X204796819Y-103512023D01*
X204796819Y-103512023D02*
X204796819Y-102892976D01*
X203796819Y-101988214D02*
X203796819Y-102464404D01*
X203796819Y-102464404D02*
X204273009Y-102512023D01*
X204273009Y-102512023D02*
X204225390Y-102464404D01*
X204225390Y-102464404D02*
X204177771Y-102369166D01*
X204177771Y-102369166D02*
X204177771Y-102131071D01*
X204177771Y-102131071D02*
X204225390Y-102035833D01*
X204225390Y-102035833D02*
X204273009Y-101988214D01*
X204273009Y-101988214D02*
X204368247Y-101940595D01*
X204368247Y-101940595D02*
X204606342Y-101940595D01*
X204606342Y-101940595D02*
X204701580Y-101988214D01*
X204701580Y-101988214D02*
X204749200Y-102035833D01*
X204749200Y-102035833D02*
X204796819Y-102131071D01*
X204796819Y-102131071D02*
X204796819Y-102369166D01*
X204796819Y-102369166D02*
X204749200Y-102464404D01*
X204749200Y-102464404D02*
X204701580Y-102512023D01*
X223019580Y-89113357D02*
X223067200Y-89160976D01*
X223067200Y-89160976D02*
X223114819Y-89303833D01*
X223114819Y-89303833D02*
X223114819Y-89399071D01*
X223114819Y-89399071D02*
X223067200Y-89541928D01*
X223067200Y-89541928D02*
X222971961Y-89637166D01*
X222971961Y-89637166D02*
X222876723Y-89684785D01*
X222876723Y-89684785D02*
X222686247Y-89732404D01*
X222686247Y-89732404D02*
X222543390Y-89732404D01*
X222543390Y-89732404D02*
X222352914Y-89684785D01*
X222352914Y-89684785D02*
X222257676Y-89637166D01*
X222257676Y-89637166D02*
X222162438Y-89541928D01*
X222162438Y-89541928D02*
X222114819Y-89399071D01*
X222114819Y-89399071D02*
X222114819Y-89303833D01*
X222114819Y-89303833D02*
X222162438Y-89160976D01*
X222162438Y-89160976D02*
X222210057Y-89113357D01*
X223114819Y-88160976D02*
X223114819Y-88732404D01*
X223114819Y-88446690D02*
X222114819Y-88446690D01*
X222114819Y-88446690D02*
X222257676Y-88541928D01*
X222257676Y-88541928D02*
X222352914Y-88637166D01*
X222352914Y-88637166D02*
X222400533Y-88732404D01*
X222114819Y-87541928D02*
X222114819Y-87446690D01*
X222114819Y-87446690D02*
X222162438Y-87351452D01*
X222162438Y-87351452D02*
X222210057Y-87303833D01*
X222210057Y-87303833D02*
X222305295Y-87256214D01*
X222305295Y-87256214D02*
X222495771Y-87208595D01*
X222495771Y-87208595D02*
X222733866Y-87208595D01*
X222733866Y-87208595D02*
X222924342Y-87256214D01*
X222924342Y-87256214D02*
X223019580Y-87303833D01*
X223019580Y-87303833D02*
X223067200Y-87351452D01*
X223067200Y-87351452D02*
X223114819Y-87446690D01*
X223114819Y-87446690D02*
X223114819Y-87541928D01*
X223114819Y-87541928D02*
X223067200Y-87637166D01*
X223067200Y-87637166D02*
X223019580Y-87684785D01*
X223019580Y-87684785D02*
X222924342Y-87732404D01*
X222924342Y-87732404D02*
X222733866Y-87780023D01*
X222733866Y-87780023D02*
X222495771Y-87780023D01*
X222495771Y-87780023D02*
X222305295Y-87732404D01*
X222305295Y-87732404D02*
X222210057Y-87684785D01*
X222210057Y-87684785D02*
X222162438Y-87637166D01*
X222162438Y-87637166D02*
X222114819Y-87541928D01*
X232228819Y-104416785D02*
X231228819Y-104416785D01*
X231228819Y-104416785D02*
X231228819Y-104178690D01*
X231228819Y-104178690D02*
X231276438Y-104035833D01*
X231276438Y-104035833D02*
X231371676Y-103940595D01*
X231371676Y-103940595D02*
X231466914Y-103892976D01*
X231466914Y-103892976D02*
X231657390Y-103845357D01*
X231657390Y-103845357D02*
X231800247Y-103845357D01*
X231800247Y-103845357D02*
X231990723Y-103892976D01*
X231990723Y-103892976D02*
X232085961Y-103940595D01*
X232085961Y-103940595D02*
X232181200Y-104035833D01*
X232181200Y-104035833D02*
X232228819Y-104178690D01*
X232228819Y-104178690D02*
X232228819Y-104416785D01*
X231228819Y-103512023D02*
X231228819Y-102892976D01*
X231228819Y-102892976D02*
X231609771Y-103226309D01*
X231609771Y-103226309D02*
X231609771Y-103083452D01*
X231609771Y-103083452D02*
X231657390Y-102988214D01*
X231657390Y-102988214D02*
X231705009Y-102940595D01*
X231705009Y-102940595D02*
X231800247Y-102892976D01*
X231800247Y-102892976D02*
X232038342Y-102892976D01*
X232038342Y-102892976D02*
X232133580Y-102940595D01*
X232133580Y-102940595D02*
X232181200Y-102988214D01*
X232181200Y-102988214D02*
X232228819Y-103083452D01*
X232228819Y-103083452D02*
X232228819Y-103369166D01*
X232228819Y-103369166D02*
X232181200Y-103464404D01*
X232181200Y-103464404D02*
X232133580Y-103512023D01*
X231228819Y-102273928D02*
X231228819Y-102178690D01*
X231228819Y-102178690D02*
X231276438Y-102083452D01*
X231276438Y-102083452D02*
X231324057Y-102035833D01*
X231324057Y-102035833D02*
X231419295Y-101988214D01*
X231419295Y-101988214D02*
X231609771Y-101940595D01*
X231609771Y-101940595D02*
X231847866Y-101940595D01*
X231847866Y-101940595D02*
X232038342Y-101988214D01*
X232038342Y-101988214D02*
X232133580Y-102035833D01*
X232133580Y-102035833D02*
X232181200Y-102083452D01*
X232181200Y-102083452D02*
X232228819Y-102178690D01*
X232228819Y-102178690D02*
X232228819Y-102273928D01*
X232228819Y-102273928D02*
X232181200Y-102369166D01*
X232181200Y-102369166D02*
X232133580Y-102416785D01*
X232133580Y-102416785D02*
X232038342Y-102464404D01*
X232038342Y-102464404D02*
X231847866Y-102512023D01*
X231847866Y-102512023D02*
X231609771Y-102512023D01*
X231609771Y-102512023D02*
X231419295Y-102464404D01*
X231419295Y-102464404D02*
X231324057Y-102416785D01*
X231324057Y-102416785D02*
X231276438Y-102369166D01*
X231276438Y-102369166D02*
X231228819Y-102273928D01*
X210384819Y-104416785D02*
X209384819Y-104416785D01*
X209384819Y-104416785D02*
X209384819Y-104178690D01*
X209384819Y-104178690D02*
X209432438Y-104035833D01*
X209432438Y-104035833D02*
X209527676Y-103940595D01*
X209527676Y-103940595D02*
X209622914Y-103892976D01*
X209622914Y-103892976D02*
X209813390Y-103845357D01*
X209813390Y-103845357D02*
X209956247Y-103845357D01*
X209956247Y-103845357D02*
X210146723Y-103892976D01*
X210146723Y-103892976D02*
X210241961Y-103940595D01*
X210241961Y-103940595D02*
X210337200Y-104035833D01*
X210337200Y-104035833D02*
X210384819Y-104178690D01*
X210384819Y-104178690D02*
X210384819Y-104416785D01*
X209480057Y-103464404D02*
X209432438Y-103416785D01*
X209432438Y-103416785D02*
X209384819Y-103321547D01*
X209384819Y-103321547D02*
X209384819Y-103083452D01*
X209384819Y-103083452D02*
X209432438Y-102988214D01*
X209432438Y-102988214D02*
X209480057Y-102940595D01*
X209480057Y-102940595D02*
X209575295Y-102892976D01*
X209575295Y-102892976D02*
X209670533Y-102892976D01*
X209670533Y-102892976D02*
X209813390Y-102940595D01*
X209813390Y-102940595D02*
X210384819Y-103512023D01*
X210384819Y-103512023D02*
X210384819Y-102892976D01*
X209384819Y-102035833D02*
X209384819Y-102226309D01*
X209384819Y-102226309D02*
X209432438Y-102321547D01*
X209432438Y-102321547D02*
X209480057Y-102369166D01*
X209480057Y-102369166D02*
X209622914Y-102464404D01*
X209622914Y-102464404D02*
X209813390Y-102512023D01*
X209813390Y-102512023D02*
X210194342Y-102512023D01*
X210194342Y-102512023D02*
X210289580Y-102464404D01*
X210289580Y-102464404D02*
X210337200Y-102416785D01*
X210337200Y-102416785D02*
X210384819Y-102321547D01*
X210384819Y-102321547D02*
X210384819Y-102131071D01*
X210384819Y-102131071D02*
X210337200Y-102035833D01*
X210337200Y-102035833D02*
X210289580Y-101988214D01*
X210289580Y-101988214D02*
X210194342Y-101940595D01*
X210194342Y-101940595D02*
X209956247Y-101940595D01*
X209956247Y-101940595D02*
X209861009Y-101988214D01*
X209861009Y-101988214D02*
X209813390Y-102035833D01*
X209813390Y-102035833D02*
X209765771Y-102131071D01*
X209765771Y-102131071D02*
X209765771Y-102321547D01*
X209765771Y-102321547D02*
X209813390Y-102416785D01*
X209813390Y-102416785D02*
X209861009Y-102464404D01*
X209861009Y-102464404D02*
X209956247Y-102512023D01*
X171822819Y-96344404D02*
X172632342Y-96344404D01*
X172632342Y-96344404D02*
X172727580Y-96296785D01*
X172727580Y-96296785D02*
X172775200Y-96249166D01*
X172775200Y-96249166D02*
X172822819Y-96153928D01*
X172822819Y-96153928D02*
X172822819Y-95963452D01*
X172822819Y-95963452D02*
X172775200Y-95868214D01*
X172775200Y-95868214D02*
X172727580Y-95820595D01*
X172727580Y-95820595D02*
X172632342Y-95772976D01*
X172632342Y-95772976D02*
X171822819Y-95772976D01*
X171822819Y-95392023D02*
X171822819Y-94725357D01*
X171822819Y-94725357D02*
X172822819Y-95153928D01*
D11*
X72958000Y-78564500D02*
X72958000Y-83704500D01*
X70298000Y-83704500D02*
X72958000Y-83704500D01*
X70298000Y-78564500D02*
X72958000Y-78564500D01*
X70298000Y-78564500D02*
X70298000Y-83704500D01*
X70298000Y-77294500D02*
X70298000Y-75964500D01*
X70298000Y-75964500D02*
X71628000Y-75964500D01*
X78307000Y-98361000D02*
X77977000Y-98601000D01*
X77977000Y-98121000D01*
X78307000Y-98361000D01*
G36*
X78307000Y-98361000D02*
G01*
X77977000Y-98601000D01*
X77977000Y-98121000D01*
X78307000Y-98361000D01*
G37*
X83332000Y-95661000D02*
X83332000Y-93711000D01*
X83332000Y-95661000D02*
X83332000Y-97611000D01*
X78212000Y-95661000D02*
X78212000Y-93711000D01*
X78212000Y-95661000D02*
X78212000Y-97611000D01*
X85063000Y-88776064D02*
X85063000Y-88321936D01*
X83593000Y-88776064D02*
X83593000Y-88321936D01*
X80545000Y-88321936D02*
X80545000Y-88776064D01*
X82015000Y-88321936D02*
X82015000Y-88776064D01*
X87828000Y-104281000D02*
X87828000Y-101596000D01*
X85908000Y-101596000D02*
X85908000Y-104281000D01*
X87828000Y-101596000D02*
X85908000Y-101596000D01*
X82240000Y-104281000D02*
X82240000Y-101596000D01*
X80320000Y-101596000D02*
X80320000Y-104281000D01*
X82240000Y-101596000D02*
X80320000Y-101596000D01*
X76652000Y-104281000D02*
X76652000Y-101596000D01*
X74732000Y-101596000D02*
X74732000Y-104281000D01*
X76652000Y-101596000D02*
X74732000Y-101596000D01*
X76989000Y-88287748D02*
X76989000Y-88810252D01*
X78459000Y-88287748D02*
X78459000Y-88810252D01*
X94055000Y-98361000D02*
X93725000Y-98601000D01*
X93725000Y-98121000D01*
X94055000Y-98361000D01*
G36*
X94055000Y-98361000D02*
G01*
X93725000Y-98601000D01*
X93725000Y-98121000D01*
X94055000Y-98361000D01*
G37*
X99080000Y-95661000D02*
X99080000Y-93711000D01*
X99080000Y-95661000D02*
X99080000Y-97611000D01*
X93960000Y-95661000D02*
X93960000Y-93711000D01*
X93960000Y-95661000D02*
X93960000Y-97611000D01*
X235010000Y-78564500D02*
X235010000Y-83704500D01*
X232350000Y-83704500D02*
X235010000Y-83704500D01*
X232350000Y-78564500D02*
X235010000Y-78564500D01*
X232350000Y-78564500D02*
X232350000Y-83704500D01*
X232350000Y-77294500D02*
X232350000Y-75964500D01*
X232350000Y-75964500D02*
X233680000Y-75964500D01*
X92737000Y-88287748D02*
X92737000Y-88810252D01*
X94207000Y-88287748D02*
X94207000Y-88810252D01*
X191289000Y-88321936D02*
X191289000Y-88776064D01*
X192759000Y-88321936D02*
X192759000Y-88776064D01*
X195807000Y-88776064D02*
X195807000Y-88321936D01*
X194337000Y-88776064D02*
X194337000Y-88321936D01*
X135580000Y-104281000D02*
X135580000Y-101596000D01*
X133660000Y-101596000D02*
X133660000Y-104281000D01*
X135580000Y-101596000D02*
X133660000Y-101596000D01*
X223801000Y-88243436D02*
X223801000Y-88697564D01*
X225271000Y-88243436D02*
X225271000Y-88697564D01*
X126059000Y-98361000D02*
X125729000Y-98601000D01*
X125729000Y-98121000D01*
X126059000Y-98361000D01*
G36*
X126059000Y-98361000D02*
G01*
X125729000Y-98601000D01*
X125729000Y-98121000D01*
X126059000Y-98361000D01*
G37*
X131084000Y-95661000D02*
X131084000Y-93711000D01*
X131084000Y-95661000D02*
X131084000Y-97611000D01*
X125964000Y-95661000D02*
X125964000Y-93711000D01*
X125964000Y-95661000D02*
X125964000Y-97611000D01*
X128297000Y-88321936D02*
X128297000Y-88776064D01*
X129767000Y-88321936D02*
X129767000Y-88776064D01*
X205307000Y-98282500D02*
X204977000Y-98522500D01*
X204977000Y-98042500D01*
X205307000Y-98282500D01*
G36*
X205307000Y-98282500D02*
G01*
X204977000Y-98522500D01*
X204977000Y-98042500D01*
X205307000Y-98282500D01*
G37*
X210332000Y-95582500D02*
X210332000Y-93632500D01*
X210332000Y-95582500D02*
X210332000Y-97532500D01*
X205212000Y-95582500D02*
X205212000Y-93632500D01*
X205212000Y-95582500D02*
X205212000Y-97532500D01*
X161488000Y-104202500D02*
X161488000Y-101517500D01*
X159568000Y-101517500D02*
X159568000Y-104202500D01*
X161488000Y-101517500D02*
X159568000Y-101517500D01*
X117067000Y-88697564D02*
X117067000Y-88243436D01*
X115597000Y-88697564D02*
X115597000Y-88243436D01*
X97988000Y-104281000D02*
X97988000Y-101596000D01*
X96068000Y-101596000D02*
X96068000Y-104281000D01*
X97988000Y-101596000D02*
X96068000Y-101596000D01*
X140152000Y-104281000D02*
X140152000Y-101596000D01*
X138232000Y-101596000D02*
X138232000Y-104281000D01*
X140152000Y-101596000D02*
X138232000Y-101596000D01*
X140489000Y-88287748D02*
X140489000Y-88810252D01*
X141959000Y-88287748D02*
X141959000Y-88810252D01*
X167076000Y-104202500D02*
X167076000Y-101517500D01*
X165156000Y-101517500D02*
X165156000Y-104202500D01*
X167076000Y-101517500D02*
X165156000Y-101517500D01*
X155900000Y-104202500D02*
X155900000Y-101517500D01*
X153980000Y-101517500D02*
X153980000Y-104202500D01*
X155900000Y-101517500D02*
X153980000Y-101517500D01*
X100811000Y-88776064D02*
X100811000Y-88321936D01*
X99341000Y-88776064D02*
X99341000Y-88321936D01*
X198572000Y-104281000D02*
X198572000Y-101596000D01*
X196652000Y-101596000D02*
X196652000Y-104281000D01*
X198572000Y-101596000D02*
X196652000Y-101596000D01*
X187733000Y-88287748D02*
X187733000Y-88810252D01*
X189203000Y-88287748D02*
X189203000Y-88810252D01*
X114244000Y-104202500D02*
X114244000Y-101517500D01*
X112324000Y-101517500D02*
X112324000Y-104202500D01*
X114244000Y-101517500D02*
X112324000Y-101517500D01*
X145740000Y-104281000D02*
X145740000Y-101596000D01*
X143820000Y-101596000D02*
X143820000Y-104281000D01*
X145740000Y-101596000D02*
X143820000Y-101596000D01*
X97763000Y-88321936D02*
X97763000Y-88776064D01*
X96293000Y-88321936D02*
X96293000Y-88776064D01*
X151328000Y-104281000D02*
X151328000Y-101596000D01*
X149408000Y-101596000D02*
X149408000Y-104281000D01*
X151328000Y-101596000D02*
X149408000Y-101596000D01*
X156237000Y-88209248D02*
X156237000Y-88731752D01*
X157707000Y-88209248D02*
X157707000Y-88731752D01*
X187396000Y-104281000D02*
X187396000Y-101596000D01*
X185476000Y-101596000D02*
X185476000Y-104281000D01*
X187396000Y-101596000D02*
X185476000Y-101596000D01*
X177236000Y-104202500D02*
X177236000Y-101517500D01*
X175316000Y-101517500D02*
X175316000Y-104202500D01*
X177236000Y-101517500D02*
X175316000Y-101517500D01*
X171985000Y-88209248D02*
X171985000Y-88731752D01*
X173455000Y-88209248D02*
X173455000Y-88731752D01*
X192984000Y-104281000D02*
X192984000Y-101596000D01*
X191064000Y-101596000D02*
X191064000Y-104281000D01*
X192984000Y-101596000D02*
X191064000Y-101596000D01*
X182824000Y-104202500D02*
X182824000Y-101517500D01*
X180904000Y-101517500D02*
X180904000Y-104202500D01*
X182824000Y-101517500D02*
X180904000Y-101517500D01*
X164311000Y-88697564D02*
X164311000Y-88243436D01*
X162841000Y-88697564D02*
X162841000Y-88243436D01*
X159793000Y-88243436D02*
X159793000Y-88697564D01*
X161263000Y-88243436D02*
X161263000Y-88697564D01*
X189051000Y-98361000D02*
X188721000Y-98601000D01*
X188721000Y-98121000D01*
X189051000Y-98361000D01*
G36*
X189051000Y-98361000D02*
G01*
X188721000Y-98601000D01*
X188721000Y-98121000D01*
X189051000Y-98361000D01*
G37*
X194076000Y-95661000D02*
X194076000Y-93711000D01*
X194076000Y-95661000D02*
X194076000Y-97611000D01*
X188956000Y-95661000D02*
X188956000Y-93711000D01*
X188956000Y-95661000D02*
X188956000Y-97611000D01*
X171648000Y-104202500D02*
X171648000Y-101517500D01*
X169728000Y-101517500D02*
X169728000Y-104202500D01*
X171648000Y-101517500D02*
X169728000Y-101517500D01*
X175541000Y-88243436D02*
X175541000Y-88697564D01*
X177011000Y-88243436D02*
X177011000Y-88697564D01*
X180059000Y-88697564D02*
X180059000Y-88243436D01*
X178589000Y-88697564D02*
X178589000Y-88243436D01*
X157555000Y-98282500D02*
X157225000Y-98522500D01*
X157225000Y-98042500D01*
X157555000Y-98282500D01*
G36*
X157555000Y-98282500D02*
G01*
X157225000Y-98522500D01*
X157225000Y-98042500D01*
X157555000Y-98282500D01*
G37*
X162580000Y-95582500D02*
X162580000Y-93632500D01*
X162580000Y-95582500D02*
X162580000Y-97532500D01*
X157460000Y-95582500D02*
X157460000Y-93632500D01*
X157460000Y-95582500D02*
X157460000Y-97532500D01*
X214828000Y-104202500D02*
X214828000Y-101517500D01*
X212908000Y-101517500D02*
X212908000Y-104202500D01*
X214828000Y-101517500D02*
X212908000Y-101517500D01*
X132815000Y-88776064D02*
X132815000Y-88321936D01*
X131345000Y-88776064D02*
X131345000Y-88321936D01*
X92400000Y-104281000D02*
X92400000Y-101596000D01*
X90480000Y-101596000D02*
X90480000Y-104281000D01*
X92400000Y-101596000D02*
X90480000Y-101596000D01*
X203989000Y-88209248D02*
X203989000Y-88731752D01*
X205459000Y-88209248D02*
X205459000Y-88731752D01*
X144045000Y-88321936D02*
X144045000Y-88776064D01*
X145515000Y-88321936D02*
X145515000Y-88776064D01*
X129992000Y-104281000D02*
X129992000Y-101596000D01*
X128072000Y-101596000D02*
X128072000Y-104281000D01*
X129992000Y-101596000D02*
X128072000Y-101596000D01*
X141807000Y-98361000D02*
X141477000Y-98601000D01*
X141477000Y-98121000D01*
X141807000Y-98361000D01*
G36*
X141807000Y-98361000D02*
G01*
X141477000Y-98601000D01*
X141477000Y-98121000D01*
X141807000Y-98361000D01*
G37*
X146832000Y-95661000D02*
X146832000Y-93711000D01*
X146832000Y-95661000D02*
X146832000Y-97611000D01*
X141712000Y-95661000D02*
X141712000Y-93711000D01*
X141712000Y-95661000D02*
X141712000Y-97611000D01*
X124741000Y-88287748D02*
X124741000Y-88810252D01*
X126211000Y-88287748D02*
X126211000Y-88810252D01*
X221563000Y-98282500D02*
X221233000Y-98522500D01*
X221233000Y-98042500D01*
X221563000Y-98282500D01*
G36*
X221563000Y-98282500D02*
G01*
X221233000Y-98522500D01*
X221233000Y-98042500D01*
X221563000Y-98282500D01*
G37*
X226588000Y-95582500D02*
X226588000Y-93632500D01*
X226588000Y-95582500D02*
X226588000Y-97532500D01*
X221468000Y-95582500D02*
X221468000Y-93632500D01*
X221468000Y-95582500D02*
X221468000Y-97532500D01*
X108993000Y-88209248D02*
X108993000Y-88731752D01*
X110463000Y-88209248D02*
X110463000Y-88731752D01*
X108656000Y-104202500D02*
X108656000Y-101517500D01*
X106736000Y-101517500D02*
X106736000Y-104202500D01*
X108656000Y-101517500D02*
X106736000Y-101517500D01*
X112549000Y-88243436D02*
X112549000Y-88697564D01*
X114019000Y-88243436D02*
X114019000Y-88697564D01*
X119832000Y-104202500D02*
X119832000Y-101517500D01*
X117912000Y-101517500D02*
X117912000Y-104202500D01*
X119832000Y-101517500D02*
X117912000Y-101517500D01*
X110311000Y-98282500D02*
X109981000Y-98522500D01*
X109981000Y-98042500D01*
X110311000Y-98282500D01*
G36*
X110311000Y-98282500D02*
G01*
X109981000Y-98522500D01*
X109981000Y-98042500D01*
X110311000Y-98282500D01*
G37*
X115336000Y-95582500D02*
X115336000Y-93632500D01*
X115336000Y-95582500D02*
X115336000Y-97532500D01*
X110216000Y-95582500D02*
X110216000Y-93632500D01*
X110216000Y-95582500D02*
X110216000Y-97532500D01*
X219908000Y-104202500D02*
X219908000Y-101517500D01*
X217988000Y-101517500D02*
X217988000Y-104202500D01*
X219908000Y-101517500D02*
X217988000Y-101517500D01*
X103576000Y-104281000D02*
X103576000Y-101596000D01*
X101656000Y-101596000D02*
X101656000Y-104281000D01*
X103576000Y-101596000D02*
X101656000Y-101596000D01*
X207545000Y-88243436D02*
X207545000Y-88697564D01*
X209015000Y-88243436D02*
X209015000Y-88697564D01*
X124404000Y-104281000D02*
X124404000Y-101596000D01*
X122484000Y-101596000D02*
X122484000Y-104281000D01*
X124404000Y-101596000D02*
X122484000Y-101596000D01*
X225496000Y-104202500D02*
X225496000Y-101517500D01*
X223576000Y-101517500D02*
X223576000Y-104202500D01*
X225496000Y-101517500D02*
X223576000Y-101517500D01*
X228319000Y-88697564D02*
X228319000Y-88243436D01*
X226849000Y-88697564D02*
X226849000Y-88243436D01*
X203652000Y-104202500D02*
X203652000Y-101517500D01*
X201732000Y-101517500D02*
X201732000Y-104202500D01*
X203652000Y-101517500D02*
X201732000Y-101517500D01*
X220245000Y-88209248D02*
X220245000Y-88731752D01*
X221715000Y-88209248D02*
X221715000Y-88731752D01*
X231084000Y-104202500D02*
X231084000Y-101517500D01*
X229164000Y-101517500D02*
X229164000Y-104202500D01*
X231084000Y-101517500D02*
X229164000Y-101517500D01*
X148563000Y-88776064D02*
X148563000Y-88321936D01*
X147093000Y-88776064D02*
X147093000Y-88321936D01*
X209240000Y-104202500D02*
X209240000Y-101517500D01*
X207320000Y-101517500D02*
X207320000Y-104202500D01*
X209240000Y-101517500D02*
X207320000Y-101517500D01*
X173303000Y-98282500D02*
X172973000Y-98522500D01*
X172973000Y-98042500D01*
X173303000Y-98282500D01*
G36*
X173303000Y-98282500D02*
G01*
X172973000Y-98522500D01*
X172973000Y-98042500D01*
X173303000Y-98282500D01*
G37*
X178328000Y-95582500D02*
X178328000Y-93632500D01*
X178328000Y-95582500D02*
X178328000Y-97532500D01*
X173208000Y-95582500D02*
X173208000Y-93632500D01*
X173208000Y-95582500D02*
X173208000Y-97532500D01*
X212063000Y-88697564D02*
X212063000Y-88243436D01*
X210593000Y-88697564D02*
X210593000Y-88243436D01*
%LPC*%
D12*
X71628000Y-82374500D03*
X71628000Y-79834500D03*
D13*
X71628000Y-77294500D03*
D14*
X78867000Y-93036000D03*
X80137000Y-93036000D03*
X81407000Y-93036000D03*
X82677000Y-93036000D03*
X82677000Y-98286000D03*
X81407000Y-98286000D03*
X80137000Y-98286000D03*
X78867000Y-98286000D03*
D15*
X84328000Y-87636500D03*
X84328000Y-89461500D03*
D16*
X81280000Y-89461500D03*
X81280000Y-87636500D03*
D17*
X86868000Y-104218500D03*
X86868000Y-102343500D03*
X81280000Y-104218500D03*
X81280000Y-102343500D03*
X75692000Y-104218500D03*
X75692000Y-102343500D03*
D18*
X77724000Y-89499000D03*
X77724000Y-87599000D03*
D14*
X94615000Y-93036000D03*
X95885000Y-93036000D03*
X97155000Y-93036000D03*
X98425000Y-93036000D03*
X98425000Y-98286000D03*
X97155000Y-98286000D03*
X95885000Y-98286000D03*
X94615000Y-98286000D03*
D12*
X233680000Y-82374500D03*
X233680000Y-79834500D03*
D13*
X233680000Y-77294500D03*
D18*
X93472000Y-89499000D03*
X93472000Y-87599000D03*
D16*
X192024000Y-89461500D03*
X192024000Y-87636500D03*
D15*
X195072000Y-87636500D03*
X195072000Y-89461500D03*
D17*
X134620000Y-104218500D03*
X134620000Y-102343500D03*
D16*
X224536000Y-89383000D03*
X224536000Y-87558000D03*
D14*
X126619000Y-93036000D03*
X127889000Y-93036000D03*
X129159000Y-93036000D03*
X130429000Y-93036000D03*
X130429000Y-98286000D03*
X129159000Y-98286000D03*
X127889000Y-98286000D03*
X126619000Y-98286000D03*
D16*
X129032000Y-89461500D03*
X129032000Y-87636500D03*
D14*
X205867000Y-92957500D03*
X207137000Y-92957500D03*
X208407000Y-92957500D03*
X209677000Y-92957500D03*
X209677000Y-98207500D03*
X208407000Y-98207500D03*
X207137000Y-98207500D03*
X205867000Y-98207500D03*
D17*
X160528000Y-104140000D03*
X160528000Y-102265000D03*
D15*
X116332000Y-87558000D03*
X116332000Y-89383000D03*
D17*
X97028000Y-104218500D03*
X97028000Y-102343500D03*
X139192000Y-104218500D03*
X139192000Y-102343500D03*
D18*
X141224000Y-89499000D03*
X141224000Y-87599000D03*
D17*
X166116000Y-104140000D03*
X166116000Y-102265000D03*
X154940000Y-104140000D03*
X154940000Y-102265000D03*
D15*
X100076000Y-87636500D03*
X100076000Y-89461500D03*
D17*
X197612000Y-104218500D03*
X197612000Y-102343500D03*
D18*
X188468000Y-89499000D03*
X188468000Y-87599000D03*
D17*
X113284000Y-104140000D03*
X113284000Y-102265000D03*
X144780000Y-104218500D03*
X144780000Y-102343500D03*
D16*
X97028000Y-87636500D03*
X97028000Y-89461500D03*
D17*
X150368000Y-104218500D03*
X150368000Y-102343500D03*
D18*
X156972000Y-89420500D03*
X156972000Y-87520500D03*
D17*
X186436000Y-104218500D03*
X186436000Y-102343500D03*
X176276000Y-104140000D03*
X176276000Y-102265000D03*
D18*
X172720000Y-89420500D03*
X172720000Y-87520500D03*
D17*
X192024000Y-104218500D03*
X192024000Y-102343500D03*
X181864000Y-104140000D03*
X181864000Y-102265000D03*
D15*
X163576000Y-87558000D03*
X163576000Y-89383000D03*
D16*
X160528000Y-89383000D03*
X160528000Y-87558000D03*
D14*
X189611000Y-93036000D03*
X190881000Y-93036000D03*
X192151000Y-93036000D03*
X193421000Y-93036000D03*
X193421000Y-98286000D03*
X192151000Y-98286000D03*
X190881000Y-98286000D03*
X189611000Y-98286000D03*
D17*
X170688000Y-104140000D03*
X170688000Y-102265000D03*
D16*
X176276000Y-89383000D03*
X176276000Y-87558000D03*
D15*
X179324000Y-87558000D03*
X179324000Y-89383000D03*
D14*
X158115000Y-92957500D03*
X159385000Y-92957500D03*
X160655000Y-92957500D03*
X161925000Y-92957500D03*
X161925000Y-98207500D03*
X160655000Y-98207500D03*
X159385000Y-98207500D03*
X158115000Y-98207500D03*
D17*
X213868000Y-104140000D03*
X213868000Y-102265000D03*
D15*
X132080000Y-87636500D03*
X132080000Y-89461500D03*
D17*
X91440000Y-104218500D03*
X91440000Y-102343500D03*
D18*
X204724000Y-89420500D03*
X204724000Y-87520500D03*
D16*
X144780000Y-89461500D03*
X144780000Y-87636500D03*
D17*
X129032000Y-104218500D03*
X129032000Y-102343500D03*
D14*
X142367000Y-93036000D03*
X143637000Y-93036000D03*
X144907000Y-93036000D03*
X146177000Y-93036000D03*
X146177000Y-98286000D03*
X144907000Y-98286000D03*
X143637000Y-98286000D03*
X142367000Y-98286000D03*
D18*
X125476000Y-89499000D03*
X125476000Y-87599000D03*
D14*
X222123000Y-92957500D03*
X223393000Y-92957500D03*
X224663000Y-92957500D03*
X225933000Y-92957500D03*
X225933000Y-98207500D03*
X224663000Y-98207500D03*
X223393000Y-98207500D03*
X222123000Y-98207500D03*
D18*
X109728000Y-89420500D03*
X109728000Y-87520500D03*
D17*
X107696000Y-104140000D03*
X107696000Y-102265000D03*
D16*
X113284000Y-89383000D03*
X113284000Y-87558000D03*
D17*
X118872000Y-104140000D03*
X118872000Y-102265000D03*
D14*
X110871000Y-92957500D03*
X112141000Y-92957500D03*
X113411000Y-92957500D03*
X114681000Y-92957500D03*
X114681000Y-98207500D03*
X113411000Y-98207500D03*
X112141000Y-98207500D03*
X110871000Y-98207500D03*
D17*
X218948000Y-104140000D03*
X218948000Y-102265000D03*
X102616000Y-104218500D03*
X102616000Y-102343500D03*
D16*
X208280000Y-89383000D03*
X208280000Y-87558000D03*
D17*
X123444000Y-104218500D03*
X123444000Y-102343500D03*
X224536000Y-104140000D03*
X224536000Y-102265000D03*
D15*
X227584000Y-87558000D03*
X227584000Y-89383000D03*
D17*
X202692000Y-104140000D03*
X202692000Y-102265000D03*
D18*
X220980000Y-89420500D03*
X220980000Y-87520500D03*
D17*
X230124000Y-104140000D03*
X230124000Y-102265000D03*
D15*
X147828000Y-87636500D03*
X147828000Y-89461500D03*
D17*
X208280000Y-104140000D03*
X208280000Y-102265000D03*
D14*
X173863000Y-92957500D03*
X175133000Y-92957500D03*
X176403000Y-92957500D03*
X177673000Y-92957500D03*
X177673000Y-98207500D03*
X176403000Y-98207500D03*
X175133000Y-98207500D03*
X173863000Y-98207500D03*
D15*
X211328000Y-87558000D03*
X211328000Y-89383000D03*
%LPD*%
M02*
