G04 #@! TF.GenerationSoftware,KiCad,Pcbnew,8.0.3*
G04 #@! TF.CreationDate,2024-06-20T18:30:59+01:00*
G04 #@! TF.ProjectId,BClock,42436c6f-636b-42e6-9b69-6361645f7063,rev?*
G04 #@! TF.SameCoordinates,Original*
G04 #@! TF.FileFunction,Copper,L2,Bot*
G04 #@! TF.FilePolarity,Positive*
%FSLAX46Y46*%
G04 Gerber Fmt 4.6, Leading zero omitted, Abs format (unit mm)*
G04 Created by KiCad (PCBNEW 8.0.3) date 2024-06-20 18:30:59*
%MOMM*%
%LPD*%
G01*
G04 APERTURE LIST*
G04 #@! TA.AperFunction,ComponentPad*
%ADD10O,1.700000X1.700000*%
G04 #@! TD*
G04 #@! TA.AperFunction,ComponentPad*
%ADD11R,1.700000X1.700000*%
G04 #@! TD*
G04 #@! TA.AperFunction,ViaPad*
%ADD12C,0.600000*%
G04 #@! TD*
G04 #@! TA.AperFunction,Conductor*
%ADD13C,0.500000*%
G04 #@! TD*
G04 APERTURE END LIST*
D10*
X71628000Y-82374500D03*
X71628000Y-79834500D03*
D11*
X71628000Y-77294500D03*
D10*
X233680000Y-82374500D03*
X233680000Y-79834500D03*
D11*
X233680000Y-77294500D03*
D12*
X224536000Y-84328000D03*
X224536000Y-86360000D03*
X208280000Y-84328000D03*
X208280000Y-86360000D03*
X192024000Y-84328000D03*
X192024000Y-86360000D03*
X176276000Y-86360000D03*
X176276000Y-83820000D03*
X160528000Y-83820000D03*
X160528000Y-86360000D03*
X144780000Y-86360000D03*
X144780000Y-83820000D03*
X129032000Y-86360000D03*
X129032000Y-83820000D03*
X113284000Y-86360000D03*
X113284000Y-83820000D03*
X77724000Y-86360000D03*
X97028000Y-84328000D03*
X97028000Y-86360000D03*
X99568004Y-96598500D03*
X94996000Y-90502500D03*
X115824004Y-96520000D03*
X111252000Y-90424000D03*
X131572004Y-96598500D03*
X127000000Y-90502500D03*
X147320004Y-96598500D03*
X142748000Y-90502500D03*
X174244000Y-90424000D03*
X178816004Y-96520000D03*
X189992000Y-90502500D03*
X194564004Y-96598500D03*
X210820004Y-96520000D03*
X206248000Y-90424000D03*
X222504000Y-90424000D03*
X227076004Y-96520000D03*
X163068004Y-96520000D03*
X158496000Y-90424000D03*
X81280000Y-84406500D03*
X81280000Y-86438500D03*
X79248000Y-90502500D03*
X83820004Y-96598500D03*
D13*
X224536000Y-84328000D02*
X224536000Y-86360000D01*
X208280000Y-84328000D02*
X208280000Y-86360000D01*
X192024000Y-84328000D02*
X192024000Y-86360000D01*
X176276000Y-83820000D02*
X176276000Y-86360000D01*
X160528000Y-83820000D02*
X160528000Y-86360000D01*
X144780000Y-83820000D02*
X144780000Y-86360000D01*
X129032000Y-83820000D02*
X129032000Y-86360000D01*
X113284000Y-83820000D02*
X113284000Y-86360000D01*
X72644000Y-83390500D02*
X71628000Y-82374500D01*
X73152000Y-86360000D02*
X72644000Y-85852000D01*
X77724000Y-86360000D02*
X73152000Y-86360000D01*
X72644000Y-85852000D02*
X72644000Y-83390500D01*
X97028000Y-84328000D02*
X97028000Y-86360000D01*
X222504000Y-91440000D02*
X227076004Y-96012004D01*
X227076004Y-96012004D02*
X227076004Y-96520000D01*
X222504000Y-90424000D02*
X222504000Y-91440000D01*
X206248000Y-91440000D02*
X210820004Y-96012004D01*
X210820004Y-96012004D02*
X210820004Y-96520000D01*
X206248000Y-90424000D02*
X206248000Y-91440000D01*
X189992000Y-91518500D02*
X194564004Y-96090504D01*
X194564004Y-96090504D02*
X194564004Y-96598500D01*
X189992000Y-90502500D02*
X189992000Y-91518500D01*
X174244000Y-91440000D02*
X178816004Y-96012004D01*
X178816004Y-96012004D02*
X178816004Y-96520000D01*
X174244000Y-90424000D02*
X174244000Y-91440000D01*
X158496000Y-91440000D02*
X163068004Y-96012004D01*
X163068004Y-96012004D02*
X163068004Y-96520000D01*
X158496000Y-90424000D02*
X158496000Y-91440000D01*
X142748000Y-91518500D02*
X147320004Y-96090504D01*
X147320004Y-96090504D02*
X147320004Y-96598500D01*
X142748000Y-90502500D02*
X142748000Y-91518500D01*
X127000000Y-91518500D02*
X131572004Y-96090504D01*
X131572004Y-96090504D02*
X131572004Y-96598500D01*
X127000000Y-90502500D02*
X127000000Y-91518500D01*
X111252000Y-91440000D02*
X115824004Y-96012004D01*
X115824004Y-96012004D02*
X115824004Y-96520000D01*
X111252000Y-90424000D02*
X111252000Y-91440000D01*
X94996000Y-91518500D02*
X99568004Y-96090504D01*
X99568004Y-96090504D02*
X99568004Y-96598500D01*
X94996000Y-90502500D02*
X94996000Y-91518500D01*
X81280000Y-86438500D02*
X81280000Y-84406500D01*
X79248000Y-90502500D02*
X79248000Y-91518500D01*
X83820004Y-96090504D02*
X83820004Y-96598500D01*
X79248000Y-91518500D02*
X83820004Y-96090504D01*
G04 #@! TA.AperFunction,Conductor*
G36*
X236170539Y-74766685D02*
G01*
X236216294Y-74819489D01*
X236227500Y-74871000D01*
X236227500Y-105626000D01*
X236207815Y-105693039D01*
X236155011Y-105738794D01*
X236103500Y-105750000D01*
X69204500Y-105750000D01*
X69137461Y-105730315D01*
X69091706Y-105677511D01*
X69080500Y-105626000D01*
X69080500Y-84406496D01*
X80474435Y-84406496D01*
X80474435Y-84406503D01*
X80494630Y-84585749D01*
X80494631Y-84585754D01*
X80522542Y-84665517D01*
X80529500Y-84706472D01*
X80529500Y-86138528D01*
X80522542Y-86179482D01*
X80494631Y-86259247D01*
X80474435Y-86438496D01*
X80474435Y-86438503D01*
X80494630Y-86617749D01*
X80494631Y-86617754D01*
X80554211Y-86788023D01*
X80600859Y-86862262D01*
X80650184Y-86940762D01*
X80777738Y-87068316D01*
X80930478Y-87164289D01*
X80934125Y-87165565D01*
X81100745Y-87223868D01*
X81100750Y-87223869D01*
X81279996Y-87244065D01*
X81280000Y-87244065D01*
X81280004Y-87244065D01*
X81459249Y-87223869D01*
X81459252Y-87223868D01*
X81459255Y-87223868D01*
X81629522Y-87164289D01*
X81782262Y-87068316D01*
X81909816Y-86940762D01*
X82005789Y-86788022D01*
X82065368Y-86617755D01*
X82074213Y-86539254D01*
X82085565Y-86438503D01*
X82085565Y-86438496D01*
X82065368Y-86259247D01*
X82065368Y-86259245D01*
X82037458Y-86179482D01*
X82030500Y-86138528D01*
X82030500Y-84706472D01*
X82037458Y-84665517D01*
X82065368Y-84585755D01*
X82074213Y-84507254D01*
X82085565Y-84406503D01*
X82085565Y-84406496D01*
X82076720Y-84327996D01*
X96222435Y-84327996D01*
X96222435Y-84328003D01*
X96242630Y-84507249D01*
X96242631Y-84507254D01*
X96270542Y-84587017D01*
X96277500Y-84627972D01*
X96277500Y-86060028D01*
X96270542Y-86100982D01*
X96242631Y-86180747D01*
X96222435Y-86359996D01*
X96222435Y-86360003D01*
X96242630Y-86539249D01*
X96242631Y-86539254D01*
X96302211Y-86709523D01*
X96351536Y-86788022D01*
X96398184Y-86862262D01*
X96525738Y-86989816D01*
X96678478Y-87085789D01*
X96848745Y-87145368D01*
X96848750Y-87145369D01*
X97027996Y-87165565D01*
X97028000Y-87165565D01*
X97028004Y-87165565D01*
X97207249Y-87145369D01*
X97207252Y-87145368D01*
X97207255Y-87145368D01*
X97377522Y-87085789D01*
X97530262Y-86989816D01*
X97657816Y-86862262D01*
X97753789Y-86709522D01*
X97813368Y-86539255D01*
X97824720Y-86438503D01*
X97833565Y-86360003D01*
X97833565Y-86359996D01*
X97813368Y-86180747D01*
X97813368Y-86180745D01*
X97785458Y-86100982D01*
X97778500Y-86060028D01*
X97778500Y-84627972D01*
X97785458Y-84587017D01*
X97813368Y-84507254D01*
X97813369Y-84507249D01*
X97833565Y-84328003D01*
X97833565Y-84327996D01*
X97813369Y-84148750D01*
X97813368Y-84148745D01*
X97781257Y-84056978D01*
X97753789Y-83978478D01*
X97657816Y-83825738D01*
X97652074Y-83819996D01*
X112478435Y-83819996D01*
X112478435Y-83820003D01*
X112498630Y-83999249D01*
X112498631Y-83999254D01*
X112526542Y-84079017D01*
X112533500Y-84119972D01*
X112533500Y-86060028D01*
X112526542Y-86100982D01*
X112498631Y-86180747D01*
X112478435Y-86359996D01*
X112478435Y-86360003D01*
X112498630Y-86539249D01*
X112498631Y-86539254D01*
X112558211Y-86709523D01*
X112607536Y-86788022D01*
X112654184Y-86862262D01*
X112781738Y-86989816D01*
X112934478Y-87085789D01*
X113104745Y-87145368D01*
X113104750Y-87145369D01*
X113283996Y-87165565D01*
X113284000Y-87165565D01*
X113284004Y-87165565D01*
X113463249Y-87145369D01*
X113463252Y-87145368D01*
X113463255Y-87145368D01*
X113633522Y-87085789D01*
X113786262Y-86989816D01*
X113913816Y-86862262D01*
X114009789Y-86709522D01*
X114069368Y-86539255D01*
X114080720Y-86438503D01*
X114089565Y-86360003D01*
X114089565Y-86359996D01*
X114069368Y-86180747D01*
X114069368Y-86180745D01*
X114041458Y-86100982D01*
X114034500Y-86060028D01*
X114034500Y-84119972D01*
X114041458Y-84079017D01*
X114049170Y-84056978D01*
X114069368Y-83999255D01*
X114071709Y-83978478D01*
X114089565Y-83820003D01*
X114089565Y-83819996D01*
X128226435Y-83819996D01*
X128226435Y-83820003D01*
X128246630Y-83999249D01*
X128246631Y-83999254D01*
X128274542Y-84079017D01*
X128281500Y-84119972D01*
X128281500Y-86060028D01*
X128274542Y-86100982D01*
X128246631Y-86180747D01*
X128226435Y-86359996D01*
X128226435Y-86360003D01*
X128246630Y-86539249D01*
X128246631Y-86539254D01*
X128306211Y-86709523D01*
X128355536Y-86788022D01*
X128402184Y-86862262D01*
X128529738Y-86989816D01*
X128682478Y-87085789D01*
X128852745Y-87145368D01*
X128852750Y-87145369D01*
X129031996Y-87165565D01*
X129032000Y-87165565D01*
X129032004Y-87165565D01*
X129211249Y-87145369D01*
X129211252Y-87145368D01*
X129211255Y-87145368D01*
X129381522Y-87085789D01*
X129534262Y-86989816D01*
X129661816Y-86862262D01*
X129757789Y-86709522D01*
X129817368Y-86539255D01*
X129828720Y-86438503D01*
X129837565Y-86360003D01*
X129837565Y-86359996D01*
X129817368Y-86180747D01*
X129817368Y-86180745D01*
X129789458Y-86100982D01*
X129782500Y-86060028D01*
X129782500Y-84119972D01*
X129789458Y-84079017D01*
X129797170Y-84056978D01*
X129817368Y-83999255D01*
X129819709Y-83978478D01*
X129837565Y-83820003D01*
X129837565Y-83819996D01*
X143974435Y-83819996D01*
X143974435Y-83820003D01*
X143994630Y-83999249D01*
X143994631Y-83999254D01*
X144022542Y-84079017D01*
X144029500Y-84119972D01*
X144029500Y-86060028D01*
X144022542Y-86100982D01*
X143994631Y-86180747D01*
X143974435Y-86359996D01*
X143974435Y-86360003D01*
X143994630Y-86539249D01*
X143994631Y-86539254D01*
X144054211Y-86709523D01*
X144103536Y-86788022D01*
X144150184Y-86862262D01*
X144277738Y-86989816D01*
X144430478Y-87085789D01*
X144600745Y-87145368D01*
X144600750Y-87145369D01*
X144779996Y-87165565D01*
X144780000Y-87165565D01*
X144780004Y-87165565D01*
X144959249Y-87145369D01*
X144959252Y-87145368D01*
X144959255Y-87145368D01*
X145129522Y-87085789D01*
X145282262Y-86989816D01*
X145409816Y-86862262D01*
X145505789Y-86709522D01*
X145565368Y-86539255D01*
X145576720Y-86438503D01*
X145585565Y-86360003D01*
X145585565Y-86359996D01*
X145565368Y-86180747D01*
X145565368Y-86180745D01*
X145537458Y-86100982D01*
X145530500Y-86060028D01*
X145530500Y-84119972D01*
X145537458Y-84079017D01*
X145545170Y-84056978D01*
X145565368Y-83999255D01*
X145567709Y-83978478D01*
X145585565Y-83820003D01*
X145585565Y-83819996D01*
X159722435Y-83819996D01*
X159722435Y-83820003D01*
X159742630Y-83999249D01*
X159742631Y-83999254D01*
X159770542Y-84079017D01*
X159777500Y-84119972D01*
X159777500Y-86060028D01*
X159770542Y-86100982D01*
X159742631Y-86180747D01*
X159722435Y-86359996D01*
X159722435Y-86360003D01*
X159742630Y-86539249D01*
X159742631Y-86539254D01*
X159802211Y-86709523D01*
X159851536Y-86788022D01*
X159898184Y-86862262D01*
X160025738Y-86989816D01*
X160178478Y-87085789D01*
X160348745Y-87145368D01*
X160348750Y-87145369D01*
X160527996Y-87165565D01*
X160528000Y-87165565D01*
X160528004Y-87165565D01*
X160707249Y-87145369D01*
X160707252Y-87145368D01*
X160707255Y-87145368D01*
X160877522Y-87085789D01*
X161030262Y-86989816D01*
X161157816Y-86862262D01*
X161253789Y-86709522D01*
X161313368Y-86539255D01*
X161324720Y-86438503D01*
X161333565Y-86360003D01*
X161333565Y-86359996D01*
X161313368Y-86180747D01*
X161313368Y-86180745D01*
X161285458Y-86100982D01*
X161278500Y-86060028D01*
X161278500Y-84119972D01*
X161285458Y-84079017D01*
X161293170Y-84056978D01*
X161313368Y-83999255D01*
X161315709Y-83978478D01*
X161333565Y-83820003D01*
X161333565Y-83819996D01*
X175470435Y-83819996D01*
X175470435Y-83820003D01*
X175490630Y-83999249D01*
X175490631Y-83999254D01*
X175518542Y-84079017D01*
X175525500Y-84119972D01*
X175525500Y-86060028D01*
X175518542Y-86100982D01*
X175490631Y-86180747D01*
X175470435Y-86359996D01*
X175470435Y-86360003D01*
X175490630Y-86539249D01*
X175490631Y-86539254D01*
X175550211Y-86709523D01*
X175599536Y-86788022D01*
X175646184Y-86862262D01*
X175773738Y-86989816D01*
X175926478Y-87085789D01*
X176096745Y-87145368D01*
X176096750Y-87145369D01*
X176275996Y-87165565D01*
X176276000Y-87165565D01*
X176276004Y-87165565D01*
X176455249Y-87145369D01*
X176455252Y-87145368D01*
X176455255Y-87145368D01*
X176625522Y-87085789D01*
X176778262Y-86989816D01*
X176905816Y-86862262D01*
X177001789Y-86709522D01*
X177061368Y-86539255D01*
X177072720Y-86438503D01*
X177081565Y-86360003D01*
X177081565Y-86359996D01*
X177061368Y-86180747D01*
X177061368Y-86180745D01*
X177033458Y-86100982D01*
X177026500Y-86060028D01*
X177026500Y-84327996D01*
X191218435Y-84327996D01*
X191218435Y-84328003D01*
X191238630Y-84507249D01*
X191238631Y-84507254D01*
X191266542Y-84587017D01*
X191273500Y-84627972D01*
X191273500Y-86060028D01*
X191266542Y-86100982D01*
X191238631Y-86180747D01*
X191218435Y-86359996D01*
X191218435Y-86360003D01*
X191238630Y-86539249D01*
X191238631Y-86539254D01*
X191298211Y-86709523D01*
X191347536Y-86788022D01*
X191394184Y-86862262D01*
X191521738Y-86989816D01*
X191674478Y-87085789D01*
X191844745Y-87145368D01*
X191844750Y-87145369D01*
X192023996Y-87165565D01*
X192024000Y-87165565D01*
X192024004Y-87165565D01*
X192203249Y-87145369D01*
X192203252Y-87145368D01*
X192203255Y-87145368D01*
X192373522Y-87085789D01*
X192526262Y-86989816D01*
X192653816Y-86862262D01*
X192749789Y-86709522D01*
X192809368Y-86539255D01*
X192820720Y-86438503D01*
X192829565Y-86360003D01*
X192829565Y-86359996D01*
X192809368Y-86180747D01*
X192809368Y-86180745D01*
X192781458Y-86100982D01*
X192774500Y-86060028D01*
X192774500Y-84627972D01*
X192781458Y-84587017D01*
X192809368Y-84507254D01*
X192809369Y-84507249D01*
X192829565Y-84328003D01*
X192829565Y-84327996D01*
X207474435Y-84327996D01*
X207474435Y-84328003D01*
X207494630Y-84507249D01*
X207494631Y-84507254D01*
X207522542Y-84587017D01*
X207529500Y-84627972D01*
X207529500Y-86060028D01*
X207522542Y-86100982D01*
X207494631Y-86180747D01*
X207474435Y-86359996D01*
X207474435Y-86360003D01*
X207494630Y-86539249D01*
X207494631Y-86539254D01*
X207554211Y-86709523D01*
X207603536Y-86788022D01*
X207650184Y-86862262D01*
X207777738Y-86989816D01*
X207930478Y-87085789D01*
X208100745Y-87145368D01*
X208100750Y-87145369D01*
X208279996Y-87165565D01*
X208280000Y-87165565D01*
X208280004Y-87165565D01*
X208459249Y-87145369D01*
X208459252Y-87145368D01*
X208459255Y-87145368D01*
X208629522Y-87085789D01*
X208782262Y-86989816D01*
X208909816Y-86862262D01*
X209005789Y-86709522D01*
X209065368Y-86539255D01*
X209076720Y-86438503D01*
X209085565Y-86360003D01*
X209085565Y-86359996D01*
X209065368Y-86180747D01*
X209065368Y-86180745D01*
X209037458Y-86100982D01*
X209030500Y-86060028D01*
X209030500Y-84627972D01*
X209037458Y-84587017D01*
X209065368Y-84507254D01*
X209065369Y-84507249D01*
X209085565Y-84328003D01*
X209085565Y-84327996D01*
X223730435Y-84327996D01*
X223730435Y-84328003D01*
X223750630Y-84507249D01*
X223750631Y-84507254D01*
X223778542Y-84587017D01*
X223785500Y-84627972D01*
X223785500Y-86060028D01*
X223778542Y-86100982D01*
X223750631Y-86180747D01*
X223730435Y-86359996D01*
X223730435Y-86360003D01*
X223750630Y-86539249D01*
X223750631Y-86539254D01*
X223810211Y-86709523D01*
X223859536Y-86788022D01*
X223906184Y-86862262D01*
X224033738Y-86989816D01*
X224186478Y-87085789D01*
X224356745Y-87145368D01*
X224356750Y-87145369D01*
X224535996Y-87165565D01*
X224536000Y-87165565D01*
X224536004Y-87165565D01*
X224715249Y-87145369D01*
X224715252Y-87145368D01*
X224715255Y-87145368D01*
X224885522Y-87085789D01*
X225038262Y-86989816D01*
X225165816Y-86862262D01*
X225261789Y-86709522D01*
X225321368Y-86539255D01*
X225332720Y-86438503D01*
X225341565Y-86360003D01*
X225341565Y-86359996D01*
X225321368Y-86180747D01*
X225321368Y-86180745D01*
X225293458Y-86100982D01*
X225286500Y-86060028D01*
X225286500Y-84627972D01*
X225293458Y-84587017D01*
X225321368Y-84507254D01*
X225321369Y-84507249D01*
X225341565Y-84328003D01*
X225341565Y-84327996D01*
X225321369Y-84148750D01*
X225321368Y-84148745D01*
X225289257Y-84056978D01*
X225261789Y-83978478D01*
X225165816Y-83825738D01*
X225038262Y-83698184D01*
X225010454Y-83680711D01*
X224885523Y-83602211D01*
X224715254Y-83542631D01*
X224715249Y-83542630D01*
X224536004Y-83522435D01*
X224535996Y-83522435D01*
X224356750Y-83542630D01*
X224356745Y-83542631D01*
X224186476Y-83602211D01*
X224033737Y-83698184D01*
X223906184Y-83825737D01*
X223810211Y-83978476D01*
X223750631Y-84148745D01*
X223750630Y-84148750D01*
X223730435Y-84327996D01*
X209085565Y-84327996D01*
X209065369Y-84148750D01*
X209065368Y-84148745D01*
X209033257Y-84056978D01*
X209005789Y-83978478D01*
X208909816Y-83825738D01*
X208782262Y-83698184D01*
X208754454Y-83680711D01*
X208629523Y-83602211D01*
X208459254Y-83542631D01*
X208459249Y-83542630D01*
X208280004Y-83522435D01*
X208279996Y-83522435D01*
X208100750Y-83542630D01*
X208100745Y-83542631D01*
X207930476Y-83602211D01*
X207777737Y-83698184D01*
X207650184Y-83825737D01*
X207554211Y-83978476D01*
X207494631Y-84148745D01*
X207494630Y-84148750D01*
X207474435Y-84327996D01*
X192829565Y-84327996D01*
X192809369Y-84148750D01*
X192809368Y-84148745D01*
X192777257Y-84056978D01*
X192749789Y-83978478D01*
X192653816Y-83825738D01*
X192526262Y-83698184D01*
X192498454Y-83680711D01*
X192373523Y-83602211D01*
X192203254Y-83542631D01*
X192203249Y-83542630D01*
X192024004Y-83522435D01*
X192023996Y-83522435D01*
X191844750Y-83542630D01*
X191844745Y-83542631D01*
X191674476Y-83602211D01*
X191521737Y-83698184D01*
X191394184Y-83825737D01*
X191298211Y-83978476D01*
X191238631Y-84148745D01*
X191238630Y-84148750D01*
X191218435Y-84327996D01*
X177026500Y-84327996D01*
X177026500Y-84119972D01*
X177033458Y-84079017D01*
X177041170Y-84056978D01*
X177061368Y-83999255D01*
X177063709Y-83978478D01*
X177081565Y-83820003D01*
X177081565Y-83819996D01*
X177061369Y-83640750D01*
X177061368Y-83640745D01*
X177027036Y-83542630D01*
X177001789Y-83470478D01*
X176905816Y-83317738D01*
X176778262Y-83190184D01*
X176625523Y-83094211D01*
X176455254Y-83034631D01*
X176455249Y-83034630D01*
X176276004Y-83014435D01*
X176275996Y-83014435D01*
X176096750Y-83034630D01*
X176096745Y-83034631D01*
X175926476Y-83094211D01*
X175773737Y-83190184D01*
X175646184Y-83317737D01*
X175550211Y-83470476D01*
X175490631Y-83640745D01*
X175490630Y-83640750D01*
X175470435Y-83819996D01*
X161333565Y-83819996D01*
X161313369Y-83640750D01*
X161313368Y-83640745D01*
X161279036Y-83542630D01*
X161253789Y-83470478D01*
X161157816Y-83317738D01*
X161030262Y-83190184D01*
X160877523Y-83094211D01*
X160707254Y-83034631D01*
X160707249Y-83034630D01*
X160528004Y-83014435D01*
X160527996Y-83014435D01*
X160348750Y-83034630D01*
X160348745Y-83034631D01*
X160178476Y-83094211D01*
X160025737Y-83190184D01*
X159898184Y-83317737D01*
X159802211Y-83470476D01*
X159742631Y-83640745D01*
X159742630Y-83640750D01*
X159722435Y-83819996D01*
X145585565Y-83819996D01*
X145565369Y-83640750D01*
X145565368Y-83640745D01*
X145531036Y-83542630D01*
X145505789Y-83470478D01*
X145409816Y-83317738D01*
X145282262Y-83190184D01*
X145129523Y-83094211D01*
X144959254Y-83034631D01*
X144959249Y-83034630D01*
X144780004Y-83014435D01*
X144779996Y-83014435D01*
X144600750Y-83034630D01*
X144600745Y-83034631D01*
X144430476Y-83094211D01*
X144277737Y-83190184D01*
X144150184Y-83317737D01*
X144054211Y-83470476D01*
X143994631Y-83640745D01*
X143994630Y-83640750D01*
X143974435Y-83819996D01*
X129837565Y-83819996D01*
X129817369Y-83640750D01*
X129817368Y-83640745D01*
X129783036Y-83542630D01*
X129757789Y-83470478D01*
X129661816Y-83317738D01*
X129534262Y-83190184D01*
X129381523Y-83094211D01*
X129211254Y-83034631D01*
X129211249Y-83034630D01*
X129032004Y-83014435D01*
X129031996Y-83014435D01*
X128852750Y-83034630D01*
X128852745Y-83034631D01*
X128682476Y-83094211D01*
X128529737Y-83190184D01*
X128402184Y-83317737D01*
X128306211Y-83470476D01*
X128246631Y-83640745D01*
X128246630Y-83640750D01*
X128226435Y-83819996D01*
X114089565Y-83819996D01*
X114069369Y-83640750D01*
X114069368Y-83640745D01*
X114035036Y-83542630D01*
X114009789Y-83470478D01*
X113913816Y-83317738D01*
X113786262Y-83190184D01*
X113633523Y-83094211D01*
X113463254Y-83034631D01*
X113463249Y-83034630D01*
X113284004Y-83014435D01*
X113283996Y-83014435D01*
X113104750Y-83034630D01*
X113104745Y-83034631D01*
X112934476Y-83094211D01*
X112781737Y-83190184D01*
X112654184Y-83317737D01*
X112558211Y-83470476D01*
X112498631Y-83640745D01*
X112498630Y-83640750D01*
X112478435Y-83819996D01*
X97652074Y-83819996D01*
X97530262Y-83698184D01*
X97502454Y-83680711D01*
X97377523Y-83602211D01*
X97207254Y-83542631D01*
X97207249Y-83542630D01*
X97028004Y-83522435D01*
X97027996Y-83522435D01*
X96848750Y-83542630D01*
X96848745Y-83542631D01*
X96678476Y-83602211D01*
X96525737Y-83698184D01*
X96398184Y-83825737D01*
X96302211Y-83978476D01*
X96242631Y-84148745D01*
X96242630Y-84148750D01*
X96222435Y-84327996D01*
X82076720Y-84327996D01*
X82065369Y-84227250D01*
X82065368Y-84227245D01*
X82037900Y-84148745D01*
X82005789Y-84056978D01*
X81909816Y-83904238D01*
X81782262Y-83776684D01*
X81629523Y-83680711D01*
X81459254Y-83621131D01*
X81459249Y-83621130D01*
X81280004Y-83600935D01*
X81279996Y-83600935D01*
X81100750Y-83621130D01*
X81100745Y-83621131D01*
X80930476Y-83680711D01*
X80777737Y-83776684D01*
X80650184Y-83904237D01*
X80554211Y-84056976D01*
X80494631Y-84227245D01*
X80494630Y-84227250D01*
X80474435Y-84406496D01*
X69080500Y-84406496D01*
X69080500Y-79834499D01*
X70272341Y-79834499D01*
X70272341Y-79834500D01*
X70292936Y-80069903D01*
X70292938Y-80069913D01*
X70354094Y-80298155D01*
X70354096Y-80298159D01*
X70354097Y-80298163D01*
X70453965Y-80512330D01*
X70453967Y-80512334D01*
X70589501Y-80705895D01*
X70589506Y-80705902D01*
X70756597Y-80872993D01*
X70756603Y-80872998D01*
X70942594Y-81003230D01*
X70986219Y-81057807D01*
X70993413Y-81127305D01*
X70961890Y-81189660D01*
X70942595Y-81206380D01*
X70756922Y-81336390D01*
X70756920Y-81336391D01*
X70589891Y-81503420D01*
X70589886Y-81503426D01*
X70454400Y-81696920D01*
X70454399Y-81696922D01*
X70354570Y-81911007D01*
X70354567Y-81911013D01*
X70297364Y-82124499D01*
X70297364Y-82124500D01*
X71194988Y-82124500D01*
X71162075Y-82181507D01*
X71128000Y-82308674D01*
X71128000Y-82440326D01*
X71162075Y-82567493D01*
X71194988Y-82624500D01*
X70297364Y-82624500D01*
X70354567Y-82837986D01*
X70354570Y-82837992D01*
X70454399Y-83052078D01*
X70589894Y-83245582D01*
X70756917Y-83412605D01*
X70950421Y-83548100D01*
X71164507Y-83647929D01*
X71164516Y-83647933D01*
X71378000Y-83705134D01*
X71378000Y-82807512D01*
X71435007Y-82840425D01*
X71562174Y-82874500D01*
X71693826Y-82874500D01*
X71820993Y-82840425D01*
X71878000Y-82807512D01*
X71878000Y-83705133D01*
X72091483Y-83647933D01*
X72091492Y-83647929D01*
X72305578Y-83548100D01*
X72499082Y-83412605D01*
X72666105Y-83245582D01*
X72801600Y-83052078D01*
X72901429Y-82837992D01*
X72901432Y-82837986D01*
X72958636Y-82624500D01*
X72061012Y-82624500D01*
X72093925Y-82567493D01*
X72128000Y-82440326D01*
X72128000Y-82308674D01*
X72093925Y-82181507D01*
X72061012Y-82124500D01*
X72958636Y-82124500D01*
X72958635Y-82124499D01*
X72901432Y-81911013D01*
X72901429Y-81911007D01*
X72801600Y-81696922D01*
X72801599Y-81696920D01*
X72666113Y-81503426D01*
X72666108Y-81503420D01*
X72499078Y-81336390D01*
X72313405Y-81206379D01*
X72269780Y-81151802D01*
X72262588Y-81082304D01*
X72294110Y-81019949D01*
X72313406Y-81003230D01*
X72499401Y-80872995D01*
X72666495Y-80705901D01*
X72802035Y-80512330D01*
X72901903Y-80298163D01*
X72963063Y-80069908D01*
X72983659Y-79834500D01*
X72983659Y-79834499D01*
X232324341Y-79834499D01*
X232324341Y-79834500D01*
X232344936Y-80069903D01*
X232344938Y-80069913D01*
X232406094Y-80298155D01*
X232406096Y-80298159D01*
X232406097Y-80298163D01*
X232505965Y-80512330D01*
X232505967Y-80512334D01*
X232641501Y-80705895D01*
X232641506Y-80705902D01*
X232808597Y-80872993D01*
X232808603Y-80872998D01*
X232994594Y-81003230D01*
X233038219Y-81057807D01*
X233045413Y-81127305D01*
X233013890Y-81189660D01*
X232994595Y-81206380D01*
X232808922Y-81336390D01*
X232808920Y-81336391D01*
X232641891Y-81503420D01*
X232641886Y-81503426D01*
X232506400Y-81696920D01*
X232506399Y-81696922D01*
X232406570Y-81911007D01*
X232406567Y-81911013D01*
X232349364Y-82124499D01*
X232349364Y-82124500D01*
X233246988Y-82124500D01*
X233214075Y-82181507D01*
X233180000Y-82308674D01*
X233180000Y-82440326D01*
X233214075Y-82567493D01*
X233246988Y-82624500D01*
X232349364Y-82624500D01*
X232406567Y-82837986D01*
X232406570Y-82837992D01*
X232506399Y-83052078D01*
X232641894Y-83245582D01*
X232808917Y-83412605D01*
X233002421Y-83548100D01*
X233216507Y-83647929D01*
X233216516Y-83647933D01*
X233430000Y-83705134D01*
X233430000Y-82807512D01*
X233487007Y-82840425D01*
X233614174Y-82874500D01*
X233745826Y-82874500D01*
X233872993Y-82840425D01*
X233930000Y-82807512D01*
X233930000Y-83705133D01*
X234143483Y-83647933D01*
X234143492Y-83647929D01*
X234357578Y-83548100D01*
X234551082Y-83412605D01*
X234718105Y-83245582D01*
X234853600Y-83052078D01*
X234953429Y-82837992D01*
X234953432Y-82837986D01*
X235010636Y-82624500D01*
X234113012Y-82624500D01*
X234145925Y-82567493D01*
X234180000Y-82440326D01*
X234180000Y-82308674D01*
X234145925Y-82181507D01*
X234113012Y-82124500D01*
X235010636Y-82124500D01*
X235010635Y-82124499D01*
X234953432Y-81911013D01*
X234953429Y-81911007D01*
X234853600Y-81696922D01*
X234853599Y-81696920D01*
X234718113Y-81503426D01*
X234718108Y-81503420D01*
X234551078Y-81336390D01*
X234365405Y-81206379D01*
X234321780Y-81151802D01*
X234314588Y-81082304D01*
X234346110Y-81019949D01*
X234365406Y-81003230D01*
X234551401Y-80872995D01*
X234718495Y-80705901D01*
X234854035Y-80512330D01*
X234953903Y-80298163D01*
X235015063Y-80069908D01*
X235035659Y-79834500D01*
X235015063Y-79599092D01*
X234953903Y-79370837D01*
X234854035Y-79156671D01*
X234718495Y-78963099D01*
X234596567Y-78841171D01*
X234563084Y-78779851D01*
X234568068Y-78710159D01*
X234609939Y-78654225D01*
X234640915Y-78637310D01*
X234772331Y-78588296D01*
X234887546Y-78502046D01*
X234973796Y-78386831D01*
X235024091Y-78251983D01*
X235030500Y-78192373D01*
X235030499Y-76396628D01*
X235024091Y-76337017D01*
X234973796Y-76202169D01*
X234973795Y-76202168D01*
X234973793Y-76202164D01*
X234887547Y-76086955D01*
X234887544Y-76086952D01*
X234772335Y-76000706D01*
X234772328Y-76000702D01*
X234637482Y-75950408D01*
X234637483Y-75950408D01*
X234577883Y-75944001D01*
X234577881Y-75944000D01*
X234577873Y-75944000D01*
X234577864Y-75944000D01*
X232782129Y-75944000D01*
X232782123Y-75944001D01*
X232722516Y-75950408D01*
X232587671Y-76000702D01*
X232587664Y-76000706D01*
X232472455Y-76086952D01*
X232472452Y-76086955D01*
X232386206Y-76202164D01*
X232386202Y-76202171D01*
X232335908Y-76337017D01*
X232329501Y-76396616D01*
X232329501Y-76396623D01*
X232329500Y-76396635D01*
X232329500Y-78192370D01*
X232329501Y-78192376D01*
X232335908Y-78251983D01*
X232386202Y-78386828D01*
X232386206Y-78386835D01*
X232472452Y-78502044D01*
X232472455Y-78502047D01*
X232587664Y-78588293D01*
X232587671Y-78588297D01*
X232719081Y-78637310D01*
X232775015Y-78679181D01*
X232799432Y-78744645D01*
X232784580Y-78812918D01*
X232763430Y-78841173D01*
X232641503Y-78963100D01*
X232505965Y-79156669D01*
X232505964Y-79156671D01*
X232406098Y-79370835D01*
X232406094Y-79370844D01*
X232344938Y-79599086D01*
X232344936Y-79599096D01*
X232324341Y-79834499D01*
X72983659Y-79834499D01*
X72963063Y-79599092D01*
X72901903Y-79370837D01*
X72802035Y-79156671D01*
X72666495Y-78963099D01*
X72544567Y-78841171D01*
X72511084Y-78779851D01*
X72516068Y-78710159D01*
X72557939Y-78654225D01*
X72588915Y-78637310D01*
X72720331Y-78588296D01*
X72835546Y-78502046D01*
X72921796Y-78386831D01*
X72972091Y-78251983D01*
X72978500Y-78192373D01*
X72978499Y-76396628D01*
X72972091Y-76337017D01*
X72921796Y-76202169D01*
X72921795Y-76202168D01*
X72921793Y-76202164D01*
X72835547Y-76086955D01*
X72835544Y-76086952D01*
X72720335Y-76000706D01*
X72720328Y-76000702D01*
X72585482Y-75950408D01*
X72585483Y-75950408D01*
X72525883Y-75944001D01*
X72525881Y-75944000D01*
X72525873Y-75944000D01*
X72525864Y-75944000D01*
X70730129Y-75944000D01*
X70730123Y-75944001D01*
X70670516Y-75950408D01*
X70535671Y-76000702D01*
X70535664Y-76000706D01*
X70420455Y-76086952D01*
X70420452Y-76086955D01*
X70334206Y-76202164D01*
X70334202Y-76202171D01*
X70283908Y-76337017D01*
X70277501Y-76396616D01*
X70277501Y-76396623D01*
X70277500Y-76396635D01*
X70277500Y-78192370D01*
X70277501Y-78192376D01*
X70283908Y-78251983D01*
X70334202Y-78386828D01*
X70334206Y-78386835D01*
X70420452Y-78502044D01*
X70420455Y-78502047D01*
X70535664Y-78588293D01*
X70535671Y-78588297D01*
X70667081Y-78637310D01*
X70723015Y-78679181D01*
X70747432Y-78744645D01*
X70732580Y-78812918D01*
X70711430Y-78841173D01*
X70589503Y-78963100D01*
X70453965Y-79156669D01*
X70453964Y-79156671D01*
X70354098Y-79370835D01*
X70354094Y-79370844D01*
X70292938Y-79599086D01*
X70292936Y-79599096D01*
X70272341Y-79834499D01*
X69080500Y-79834499D01*
X69080500Y-74871000D01*
X69100185Y-74803961D01*
X69152989Y-74758206D01*
X69204500Y-74747000D01*
X236103500Y-74747000D01*
X236170539Y-74766685D01*
G37*
G04 #@! TD.AperFunction*
M02*
